<svg width="169" height="69" viewBox="0 0 169 69" fill="none" xmlns="http://www.w3.org/2000/svg">
<path d="M37.605 65.15C36.385 65.15 35.43 64.805 34.74 64.115C34.06 63.415 33.72 62.435 33.72 61.175C33.72 60.465 33.85 59.81 34.11 59.21C34.37 58.61 34.77 58.125 35.31 57.755C35.85 57.385 36.515 57.2 37.305 57.2C38.045 57.2 38.685 57.375 39.225 57.725C39.765 58.065 40.175 58.525 40.455 59.105C40.735 59.675 40.875 60.3 40.875 60.98C40.875 61.17 40.81 61.33 40.68 61.46C40.56 61.59 40.395 61.655 40.185 61.655H35.1C35.18 62.355 35.44 62.9 35.88 63.29C36.32 63.68 36.935 63.875 37.725 63.875C38.145 63.875 38.51 63.835 38.82 63.755C39.14 63.675 39.45 63.56 39.75 63.41C39.83 63.37 39.92 63.35 40.02 63.35C40.18 63.35 40.32 63.405 40.44 63.515C40.56 63.625 40.62 63.765 40.62 63.935C40.62 64.155 40.49 64.34 40.23 64.49C39.84 64.71 39.455 64.875 39.075 64.985C38.695 65.095 38.205 65.15 37.605 65.15ZM39.525 60.545C39.495 60.055 39.365 59.645 39.135 59.315C38.915 58.985 38.64 58.745 38.31 58.595C37.98 58.435 37.645 58.355 37.305 58.355C36.965 58.355 36.63 58.435 36.3 58.595C35.97 58.745 35.695 58.985 35.475 59.315C35.255 59.645 35.13 60.055 35.1 60.545H39.525ZM43.0411 65C42.7711 65 42.5461 64.93 42.3661 64.79C42.1861 64.65 42.0961 64.455 42.0961 64.205C42.0961 63.975 42.1761 63.77 42.3361 63.59L46.6561 58.625H42.8611C42.6811 58.625 42.5311 58.565 42.4111 58.445C42.2911 58.325 42.2311 58.175 42.2311 57.995C42.2311 57.815 42.2911 57.665 42.4111 57.545C42.5311 57.415 42.6811 57.35 42.8611 57.35H47.4061C47.6661 57.35 47.8761 57.43 48.0361 57.59C48.1961 57.75 48.2761 57.955 48.2761 58.205C48.2761 58.435 48.2061 58.635 48.0661 58.805L43.8661 63.725H47.7211C47.9011 63.725 48.0511 63.79 48.1711 63.92C48.3011 64.04 48.3661 64.19 48.3661 64.37C48.3661 64.55 48.3011 64.7 48.1711 64.82C48.0511 64.94 47.9011 65 47.7211 65H43.0411ZM53.5718 65.15C52.3518 65.15 51.3968 64.805 50.7068 64.115C50.0268 63.415 49.6868 62.435 49.6868 61.175C49.6868 60.465 49.8168 59.81 50.0768 59.21C50.3368 58.61 50.7368 58.125 51.2768 57.755C51.8168 57.385 52.4818 57.2 53.2718 57.2C54.0118 57.2 54.6518 57.375 55.1918 57.725C55.7318 58.065 56.1418 58.525 56.4218 59.105C56.7018 59.675 56.8418 60.3 56.8418 60.98C56.8418 61.17 56.7768 61.33 56.6468 61.46C56.5268 61.59 56.3618 61.655 56.1518 61.655H51.0668C51.1468 62.355 51.4068 62.9 51.8468 63.29C52.2868 63.68 52.9018 63.875 53.6918 63.875C54.1118 63.875 54.4768 63.835 54.7868 63.755C55.1068 63.675 55.4168 63.56 55.7168 63.41C55.7968 63.37 55.8868 63.35 55.9868 63.35C56.1468 63.35 56.2868 63.405 56.4068 63.515C56.5268 63.625 56.5868 63.765 56.5868 63.935C56.5868 64.155 56.4568 64.34 56.1968 64.49C55.8068 64.71 55.4218 64.875 55.0418 64.985C54.6618 65.095 54.1718 65.15 53.5718 65.15ZM55.4918 60.545C55.4618 60.055 55.3318 59.645 55.1018 59.315C54.8818 58.985 54.6068 58.745 54.2768 58.595C53.9468 58.435 53.6118 58.355 53.2718 58.355C52.9318 58.355 52.5968 58.435 52.2668 58.595C51.9368 58.745 51.6618 58.985 51.4418 59.315C51.2218 59.645 51.0968 60.055 51.0668 60.545H55.4918ZM59.3229 65.075C59.1329 65.075 58.9729 65.01 58.8429 64.88C58.7129 64.75 58.6479 64.59 58.6479 64.4V54.665C58.6479 54.475 58.7129 54.315 58.8429 54.185C58.9729 54.045 59.1329 53.975 59.3229 53.975C59.5129 53.975 59.6729 54.045 59.8029 54.185C59.9429 54.315 60.0129 54.475 60.0129 54.665V60.8L63.5829 57.5C63.7329 57.37 63.8829 57.305 64.0329 57.305C64.2629 57.305 64.4279 57.37 64.5279 57.5C64.6379 57.63 64.6929 57.785 64.6929 57.965C64.6929 58.135 64.6079 58.305 64.4379 58.475L62.2779 60.41L64.9929 64.01C65.0929 64.14 65.1429 64.275 65.1429 64.415C65.1429 64.615 65.0779 64.775 64.9479 64.895C64.8179 65.015 64.6529 65.075 64.4529 65.075C64.3529 65.075 64.2529 65.05 64.1529 65C64.0529 64.95 63.9679 64.88 63.8979 64.79L61.3179 61.28L60.0129 62.465V64.4C60.0129 64.59 59.9429 64.75 59.8029 64.88C59.6729 65.01 59.5129 65.075 59.3229 65.075ZM67.4667 55.79C67.2567 55.79 67.0767 55.715 66.9267 55.565C66.7767 55.415 66.7017 55.235 66.7017 55.025V54.965C66.7017 54.755 66.7767 54.575 66.9267 54.425C67.0767 54.275 67.2567 54.2 67.4667 54.2H67.5567C67.7667 54.2 67.9467 54.275 68.0967 54.425C68.2467 54.575 68.3217 54.755 68.3217 54.965V55.025C68.3217 55.235 68.2467 55.415 68.0967 55.565C67.9467 55.715 67.7667 55.79 67.5567 55.79H67.4667ZM67.4967 65.075C67.3067 65.075 67.1467 65.01 67.0167 64.88C66.8867 64.75 66.8217 64.59 66.8217 64.4V57.965C66.8217 57.775 66.8867 57.615 67.0167 57.485C67.1467 57.345 67.3067 57.275 67.4967 57.275C67.6967 57.275 67.8617 57.34 67.9917 57.47C68.1217 57.6 68.1867 57.765 68.1867 57.965V64.4C68.1867 64.59 68.1167 64.75 67.9767 64.88C67.8467 65.01 67.6867 65.075 67.4967 65.075ZM73.9771 65.15C72.7571 65.15 71.8021 64.805 71.1121 64.115C70.4321 63.415 70.0921 62.435 70.0921 61.175C70.0921 60.465 70.2221 59.81 70.4821 59.21C70.7421 58.61 71.1421 58.125 71.6821 57.755C72.2221 57.385 72.8871 57.2 73.6771 57.2C74.4171 57.2 75.0571 57.375 75.5971 57.725C76.1371 58.065 76.5471 58.525 76.8271 59.105C77.1071 59.675 77.2471 60.3 77.2471 60.98C77.2471 61.17 77.1821 61.33 77.0521 61.46C76.9321 61.59 76.7671 61.655 76.5571 61.655H71.4721C71.5521 62.355 71.8121 62.9 72.2521 63.29C72.6921 63.68 73.3071 63.875 74.0971 63.875C74.5171 63.875 74.8821 63.835 75.1921 63.755C75.5121 63.675 75.8221 63.56 76.1221 63.41C76.2021 63.37 76.2921 63.35 76.3921 63.35C76.5521 63.35 76.6921 63.405 76.8121 63.515C76.9321 63.625 76.9921 63.765 76.9921 63.935C76.9921 64.155 76.8621 64.34 76.6021 64.49C76.2121 64.71 75.8271 64.875 75.4471 64.985C75.0671 65.095 74.5771 65.15 73.9771 65.15ZM75.8971 60.545C75.8671 60.055 75.7371 59.645 75.5071 59.315C75.2871 58.985 75.0121 58.745 74.6821 58.595C74.3521 58.435 74.0171 58.355 73.6771 58.355C73.3371 58.355 73.0021 58.435 72.6721 58.595C72.3421 58.745 72.0671 58.985 71.8471 59.315C71.6271 59.645 71.5021 60.055 71.4721 60.545H75.8971ZM79.7282 65.075C79.5382 65.075 79.3782 65.01 79.2482 64.88C79.1182 64.75 79.0532 64.59 79.0532 64.4V54.665C79.0532 54.475 79.1182 54.315 79.2482 54.185C79.3782 54.045 79.5382 53.975 79.7282 53.975C79.9282 53.975 80.0932 54.04 80.2232 54.17C80.3532 54.3 80.4182 54.465 80.4182 54.665V64.4C80.4182 64.59 80.3482 64.75 80.2082 64.88C80.0782 65.01 79.9182 65.075 79.7282 65.075ZM90.105 65.15C88.885 65.15 87.93 64.805 87.24 64.115C86.56 63.415 86.22 62.435 86.22 61.175C86.22 60.465 86.35 59.81 86.61 59.21C86.87 58.61 87.27 58.125 87.81 57.755C88.35 57.385 89.015 57.2 89.805 57.2C90.545 57.2 91.185 57.375 91.725 57.725C92.265 58.065 92.675 58.525 92.955 59.105C93.235 59.675 93.375 60.3 93.375 60.98C93.375 61.17 93.31 61.33 93.18 61.46C93.06 61.59 92.895 61.655 92.685 61.655H87.6C87.68 62.355 87.94 62.9 88.38 63.29C88.82 63.68 89.435 63.875 90.225 63.875C90.645 63.875 91.01 63.835 91.32 63.755C91.64 63.675 91.95 63.56 92.25 63.41C92.33 63.37 92.42 63.35 92.52 63.35C92.68 63.35 92.82 63.405 92.94 63.515C93.06 63.625 93.12 63.765 93.12 63.935C93.12 64.155 92.99 64.34 92.73 64.49C92.34 64.71 91.955 64.875 91.575 64.985C91.195 65.095 90.705 65.15 90.105 65.15ZM92.025 60.545C91.995 60.055 91.865 59.645 91.635 59.315C91.415 58.985 91.14 58.745 90.81 58.595C90.48 58.435 90.145 58.355 89.805 58.355C89.465 58.355 89.13 58.435 88.8 58.595C88.47 58.745 88.195 58.985 87.975 59.315C87.755 59.645 87.63 60.055 87.6 60.545H92.025ZM95.8561 65.075C95.6661 65.075 95.5061 65.01 95.3761 64.88C95.2461 64.75 95.1811 64.59 95.1811 64.4V54.665C95.1811 54.475 95.2461 54.315 95.3761 54.185C95.5061 54.045 95.6661 53.975 95.8561 53.975C96.0461 53.975 96.2061 54.045 96.3361 54.185C96.4761 54.315 96.5461 54.475 96.5461 54.665V60.8L100.116 57.5C100.266 57.37 100.416 57.305 100.566 57.305C100.796 57.305 100.961 57.37 101.061 57.5C101.171 57.63 101.226 57.785 101.226 57.965C101.226 58.135 101.141 58.305 100.971 58.475L98.8111 60.41L101.526 64.01C101.626 64.14 101.676 64.275 101.676 64.415C101.676 64.615 101.611 64.775 101.481 64.895C101.351 65.015 101.186 65.075 100.986 65.075C100.886 65.075 100.786 65.05 100.686 65C100.586 64.95 100.501 64.88 100.431 64.79L97.8511 61.28L96.5461 62.465V64.4C96.5461 64.59 96.4761 64.75 96.3361 64.88C96.2061 65.01 96.0461 65.075 95.8561 65.075ZM105.965 65.15C105.415 65.15 104.935 65.02 104.525 64.76C104.125 64.5 103.815 64.145 103.595 63.695C103.385 63.245 103.28 62.75 103.28 62.21V57.95C103.28 57.76 103.345 57.6 103.475 57.47C103.615 57.34 103.78 57.275 103.97 57.275C104.16 57.275 104.32 57.34 104.45 57.47C104.58 57.6 104.645 57.76 104.645 57.95V62.06C104.645 63.28 105.195 63.89 106.295 63.89C106.795 63.89 107.24 63.76 107.63 63.5C108.03 63.24 108.405 62.89 108.755 62.45V57.95C108.755 57.76 108.82 57.6 108.95 57.47C109.09 57.34 109.255 57.275 109.445 57.275C109.635 57.275 109.795 57.34 109.925 57.47C110.055 57.6 110.12 57.76 110.12 57.95V64.385C110.12 64.575 110.055 64.74 109.925 64.88C109.795 65.01 109.635 65.075 109.445 65.075C109.255 65.075 109.09 65.01 108.95 64.88C108.82 64.74 108.755 64.575 108.755 64.385V63.77C108.375 64.19 107.965 64.525 107.525 64.775C107.085 65.025 106.565 65.15 105.965 65.15ZM113.171 65.075C112.981 65.075 112.821 65.01 112.691 64.88C112.561 64.75 112.496 64.59 112.496 64.4V57.965C112.496 57.775 112.561 57.615 112.691 57.485C112.821 57.345 112.981 57.275 113.171 57.275C113.361 57.275 113.521 57.345 113.651 57.485C113.791 57.615 113.861 57.775 113.861 57.965V58.58C114.241 58.16 114.651 57.825 115.091 57.575C115.531 57.325 116.051 57.2 116.651 57.2C117.201 57.2 117.676 57.33 118.076 57.59C118.486 57.85 118.796 58.205 119.006 58.655C119.226 59.105 119.336 59.6 119.336 60.14V64.4C119.336 64.59 119.266 64.75 119.126 64.88C118.996 65.01 118.836 65.075 118.646 65.075C118.456 65.075 118.296 65.01 118.166 64.88C118.036 64.75 117.971 64.59 117.971 64.4V60.29C117.971 59.07 117.421 58.46 116.321 58.46C115.821 58.46 115.371 58.59 114.971 58.85C114.581 59.11 114.211 59.46 113.861 59.9V64.4C113.861 64.59 113.791 64.75 113.651 64.88C113.521 65.01 113.361 65.075 113.171 65.075ZM125.011 65.15C124.241 65.15 123.566 64.985 122.986 64.655C122.406 64.325 121.956 63.86 121.636 63.26C121.326 62.65 121.171 61.955 121.171 61.175C121.171 60.395 121.326 59.705 121.636 59.105C121.956 58.495 122.406 58.025 122.986 57.695C123.566 57.365 124.241 57.2 125.011 57.2C125.771 57.2 126.441 57.365 127.021 57.695C127.601 58.025 128.051 58.495 128.371 59.105C128.691 59.705 128.851 60.395 128.851 61.175C128.851 61.955 128.691 62.65 128.371 63.26C128.051 63.86 127.601 64.325 127.021 64.655C126.441 64.985 125.771 65.15 125.011 65.15ZM125.011 63.905C125.421 63.905 125.811 63.81 126.181 63.62C126.561 63.43 126.871 63.13 127.111 62.72C127.361 62.31 127.486 61.79 127.486 61.16C127.486 60.54 127.361 60.025 127.111 59.615C126.871 59.205 126.561 58.91 126.181 58.73C125.811 58.54 125.421 58.445 125.011 58.445C124.591 58.445 124.191 58.54 123.811 58.73C123.441 58.91 123.136 59.205 122.896 59.615C122.656 60.025 122.536 60.54 122.536 61.16C122.536 61.79 122.656 62.31 122.896 62.72C123.136 63.13 123.441 63.43 123.811 63.62C124.191 63.81 124.591 63.905 125.011 63.905ZM131.437 65.075C131.247 65.075 131.087 65.01 130.957 64.88C130.827 64.75 130.762 64.59 130.762 64.4V54.665C130.762 54.475 130.827 54.315 130.957 54.185C131.087 54.045 131.247 53.975 131.437 53.975C131.637 53.975 131.802 54.04 131.932 54.17C132.062 54.3 132.127 54.465 132.127 54.665V64.4C132.127 64.59 132.057 64.75 131.917 64.88C131.787 65.01 131.627 65.075 131.437 65.075ZM136.448 65.15C136.008 65.15 135.598 65.06 135.218 64.88C134.848 64.7 134.553 64.44 134.333 64.1C134.113 63.75 134.003 63.35 134.003 62.9C134.003 62.16 134.293 61.57 134.873 61.13C135.463 60.69 136.323 60.47 137.453 60.47H139.268V60.35C139.268 59.69 139.103 59.215 138.773 58.925C138.453 58.635 137.948 58.49 137.258 58.49C136.878 58.49 136.538 58.52 136.238 58.58C135.948 58.64 135.623 58.73 135.263 58.85C135.183 58.87 135.118 58.88 135.068 58.88C134.918 58.88 134.788 58.825 134.678 58.715C134.568 58.605 134.513 58.47 134.513 58.31C134.513 58.04 134.643 57.85 134.903 57.74C135.753 57.38 136.618 57.2 137.498 57.2C138.188 57.2 138.768 57.34 139.238 57.62C139.718 57.9 140.068 58.265 140.288 58.715C140.518 59.155 140.633 59.635 140.633 60.155V64.4C140.633 64.59 140.563 64.75 140.423 64.88C140.293 65.01 140.133 65.075 139.943 65.075C139.753 65.075 139.593 65.01 139.463 64.88C139.333 64.75 139.268 64.59 139.268 64.4V64.01C138.528 64.77 137.588 65.15 136.448 65.15ZM136.958 63.95C137.398 63.95 137.823 63.845 138.233 63.635C138.643 63.415 138.988 63.145 139.268 62.825V61.565H137.633C136.123 61.565 135.368 61.96 135.368 62.75C135.368 63.11 135.488 63.4 135.728 63.62C135.978 63.84 136.388 63.95 136.958 63.95Z" fill="white"/>
<mask id="path-2-outside-1" maskUnits="userSpaceOnUse" x="0" y="0" width="169" height="56" fill="black">
<rect fill="white" width="169" height="56"/>
<path fill-rule="evenodd" clip-rule="evenodd" d="M48.1994 12.7705L43.5992 6.44H34.0302V37.88C34.0302 42.08 34.9902 45.02 36.9102 46.7C38.8702 48.34 42.2502 49.16 47.0502 49.16H62.1702V41.72H47.6502C45.6502 41.72 44.2702 41.4 43.5102 40.76C42.7502 40.12 42.3702 38.96 42.3702 37.28V31.34H55.6302L56.2302 23.9H42.3702V13.88H62.1702V6.44H49.3157L48.1994 12.7705ZM25.1 38.96V46.76L2 35.42V29.06L25.1 17.78V25.58L9.98 32.3L25.1 38.96ZM89.3154 49.16H83.3783C78.5783 49.16 75.1983 48.34 73.2383 46.7C71.3183 45.02 70.3583 42.08 70.3583 37.88V6.44H98.4983V13.88H78.6983V23.9H92.5583L91.9583 31.34H78.6983V37.28C78.6983 38.96 79.0783 40.12 79.8383 40.76C80.5895 41.3926 81.9463 41.7125 83.9088 41.7199L89.3154 49.16ZM93.4211 49.16L84.1962 41.72H98.4983V49.16H93.4211ZM140.072 2L122.972 53.6H115.652L132.752 2H140.072ZM143.211 46.76V38.96L158.331 32.3L143.211 25.58V17.78L166.311 29.06V35.42L143.211 46.76Z"/>
</mask>
<path fill-rule="evenodd" clip-rule="evenodd" d="M48.1994 12.7705L43.5992 6.44H34.0302V37.88C34.0302 42.08 34.9902 45.02 36.9102 46.7C38.8702 48.34 42.2502 49.16 47.0502 49.16H62.1702V41.72H47.6502C45.6502 41.72 44.2702 41.4 43.5102 40.76C42.7502 40.12 42.3702 38.96 42.3702 37.28V31.34H55.6302L56.2302 23.9H42.3702V13.88H62.1702V6.44H49.3157L48.1994 12.7705ZM25.1 38.96V46.76L2 35.42V29.06L25.1 17.78V25.58L9.98 32.3L25.1 38.96ZM89.3154 49.16H83.3783C78.5783 49.16 75.1983 48.34 73.2383 46.7C71.3183 45.02 70.3583 42.08 70.3583 37.88V6.44H98.4983V13.88H78.6983V23.9H92.5583L91.9583 31.34H78.6983V37.28C78.6983 38.96 79.0783 40.12 79.8383 40.76C80.5895 41.3926 81.9463 41.7125 83.9088 41.7199L89.3154 49.16ZM93.4211 49.16L84.1962 41.72H98.4983V49.16H93.4211ZM140.072 2L122.972 53.6H115.652L132.752 2H140.072ZM143.211 46.76V38.96L158.331 32.3L143.211 25.58V17.78L166.311 29.06V35.42L143.211 46.76Z" fill="white"/>
<path d="M43.5992 6.44L45.2171 5.26429L44.6181 4.44H43.5992V6.44ZM48.1994 12.7705L46.5815 13.9462L49.351 17.7574L50.169 13.1178L48.1994 12.7705ZM34.0302 6.44V4.44H32.0302V6.44H34.0302ZM36.9102 46.7L35.5931 48.2052L35.6098 48.2197L35.6267 48.2339L36.9102 46.7ZM62.1702 49.16V51.16H64.1702V49.16H62.1702ZM62.1702 41.72H64.1702V39.72H62.1702V41.72ZM43.5102 40.76L42.2219 42.2898H42.2219L43.5102 40.76ZM42.3702 31.34V29.34H40.3702V31.34H42.3702ZM55.6302 31.34V33.34H57.4754L57.6237 31.5008L55.6302 31.34ZM56.2302 23.9L58.2237 24.0608L58.3979 21.9H56.2302V23.9ZM42.3702 23.9H40.3702V25.9H42.3702V23.9ZM42.3702 13.88V11.88H40.3702V13.88H42.3702ZM62.1702 13.88V15.88H64.1702V13.88H62.1702ZM62.1702 6.44H64.1702V4.44H62.1702V6.44ZM49.3157 6.44V4.44H47.6375L47.346 6.0927L49.3157 6.44ZM25.1 46.76L24.2187 48.5553L27.1 49.9698V46.76H25.1ZM25.1 38.96H27.1V37.6555L25.9062 37.1297L25.1 38.96ZM2 35.42H0V36.6662L1.11865 37.2153L2 35.42ZM2 29.06L1.12242 27.2628L0 27.8109V29.06H2ZM25.1 17.78H27.1V14.5777L24.2224 15.9828L25.1 17.78ZM25.1 25.58L25.9123 27.4076L27.1 26.8797V25.58H25.1ZM9.98 32.3L9.16772 30.4724L5.03712 32.3082L9.17379 34.1303L9.98 32.3ZM89.3154 49.16V51.16H93.2411L90.9333 47.9843L89.3154 49.16ZM73.2383 46.7L71.9213 48.2052L71.9379 48.2197L71.9548 48.2339L73.2383 46.7ZM70.3583 6.44V4.44H68.3583V6.44H70.3583ZM98.4983 6.44H100.498V4.44H98.4983V6.44ZM98.4983 13.88V15.88H100.498V13.88H98.4983ZM78.6983 13.88V11.88H76.6983V13.88H78.6983ZM78.6983 23.9H76.6983V25.9H78.6983V23.9ZM92.5583 23.9L94.5518 24.0608L94.7261 21.9H92.5583V23.9ZM91.9583 31.34V33.34H93.8035L93.9518 31.5008L91.9583 31.34ZM78.6983 31.34V29.34H76.6983V31.34H78.6983ZM79.8383 40.76L78.55 42.2898L78.55 42.2898L79.8383 40.76ZM83.9088 41.7199L85.5268 40.5442L84.9305 39.7237L83.9163 39.7199L83.9088 41.7199ZM93.4211 49.16L92.1656 50.7168L92.7151 51.16H93.4211V49.16ZM84.1962 41.72V39.72H78.5306L82.9407 43.2768L84.1962 41.72ZM98.4983 41.72H100.498V39.72H98.4983V41.72ZM98.4983 49.16V51.16H100.498V49.16H98.4983ZM122.972 53.6V55.6H124.416L124.87 54.2291L122.972 53.6ZM140.072 2L141.97 2.62914L142.841 0H140.072V2ZM115.652 53.6L113.753 52.9709L112.882 55.6H115.652V53.6ZM132.752 2V0H131.308L130.853 1.37086L132.752 2ZM143.211 38.96L142.405 37.1297L141.211 37.6555V38.96H143.211ZM143.211 46.76H141.211V49.9698L144.092 48.5553L143.211 46.76ZM158.331 32.3L159.137 34.1303L163.274 32.3082L159.143 30.4724L158.331 32.3ZM143.211 25.58H141.211V26.8797L142.399 27.4076L143.211 25.58ZM143.211 17.78L144.089 15.9828L141.211 14.5777V17.78H143.211ZM166.311 29.06H168.311V27.8109L167.189 27.2628L166.311 29.06ZM166.311 35.42L167.192 37.2153L168.311 36.6662V35.42H166.311ZM41.9813 7.61571L46.5815 13.9462L49.8174 11.5948L45.2171 5.26429L41.9813 7.61571ZM34.0302 8.44H43.5992V4.44H34.0302V8.44ZM36.0302 37.88V6.44H32.0302V37.88H36.0302ZM38.2272 45.1948C36.9544 44.0812 36.0302 41.8651 36.0302 37.88H32.0302C32.0302 42.2949 33.0259 45.9588 35.5931 48.2052L38.2272 45.1948ZM47.0502 47.16C42.3594 47.16 39.5905 46.335 38.1936 45.1661L35.6267 48.2339C38.1498 50.345 42.1409 51.16 47.0502 51.16V47.16ZM62.1702 47.16H47.0502V51.16H62.1702V47.16ZM60.1702 41.72V49.16H64.1702V41.72H60.1702ZM47.6502 43.72H62.1702V39.72H47.6502V43.72ZM42.2219 42.2898C43.5626 43.4189 45.5823 43.72 47.6502 43.72V39.72C45.718 39.72 44.9777 39.3811 44.7984 39.2302L42.2219 42.2898ZM40.3702 37.28C40.3702 39.1565 40.7779 41.0739 42.2219 42.2898L44.7984 39.2302C44.7224 39.1661 44.3702 38.7635 44.3702 37.28H40.3702ZM40.3702 31.34V37.28H44.3702V31.34H40.3702ZM55.6302 29.34H42.3702V33.34H55.6302V29.34ZM54.2366 23.7392L53.6366 31.1792L57.6237 31.5008L58.2237 24.0608L54.2366 23.7392ZM42.3702 25.9H56.2302V21.9H42.3702V25.9ZM40.3702 13.88V23.9H44.3702V13.88H40.3702ZM62.1702 11.88H42.3702V15.88H62.1702V11.88ZM60.1702 6.44V13.88H64.1702V6.44H60.1702ZM49.3157 8.44H62.1702V4.44H49.3157V8.44ZM50.169 13.1178L51.2853 6.7873L47.346 6.0927L46.2298 12.4232L50.169 13.1178ZM27.1 46.76V38.96H23.1V46.76H27.1ZM1.11865 37.2153L24.2187 48.5553L25.9813 44.9647L2.88135 33.6247L1.11865 37.2153ZM0 29.06V35.42H4V29.06H0ZM24.2224 15.9828L1.12242 27.2628L2.87758 30.8572L25.9776 19.5772L24.2224 15.9828ZM27.1 25.58V17.78H23.1V25.58H27.1ZM10.7923 34.1276L25.9123 27.4076L24.2877 23.7524L9.16772 30.4724L10.7923 34.1276ZM25.9062 37.1297L10.7862 30.4697L9.17379 34.1303L24.2938 40.7903L25.9062 37.1297ZM83.3783 51.16H89.3154V47.16H83.3783V51.16ZM71.9548 48.2339C74.4779 50.345 78.469 51.16 83.3783 51.16V47.16C78.6875 47.16 75.9186 46.335 74.5217 45.1661L71.9548 48.2339ZM68.3583 37.88C68.3583 42.2949 69.3541 45.9588 71.9213 48.2052L74.5553 45.1948C73.2825 44.0812 72.3583 41.8651 72.3583 37.88H68.3583ZM68.3583 6.44V37.88H72.3583V6.44H68.3583ZM98.4983 4.44H70.3583V8.44H98.4983V4.44ZM100.498 13.88V6.44H96.4983V13.88H100.498ZM78.6983 15.88H98.4983V11.88H78.6983V15.88ZM80.6983 23.9V13.88H76.6983V23.9H80.6983ZM92.5583 21.9H78.6983V25.9H92.5583V21.9ZM93.9518 31.5008L94.5518 24.0608L90.5648 23.7392L89.9648 31.1792L93.9518 31.5008ZM78.6983 33.34H91.9583V29.34H78.6983V33.34ZM80.6983 37.28V31.34H76.6983V37.28H80.6983ZM81.1266 39.2302C81.0505 39.1661 80.6983 38.7635 80.6983 37.28H76.6983C76.6983 39.1565 77.1061 41.0739 78.55 42.2898L81.1266 39.2302ZM83.9163 39.7199C82.0259 39.7128 81.302 39.3779 81.1265 39.2302L78.55 42.2898C79.8769 43.4072 81.8667 43.7122 83.9014 43.7199L83.9163 39.7199ZM82.2909 42.8956L87.6975 50.3357L90.9333 47.9843L85.5268 40.5442L82.2909 42.8956ZM94.6767 47.6032L85.4518 40.1632L82.9407 43.2768L92.1656 50.7168L94.6767 47.6032ZM98.4983 39.72H84.1962V43.72H98.4983V39.72ZM100.498 49.16V41.72H96.4983V49.16H100.498ZM93.4211 51.16H98.4983V47.16H93.4211V51.16ZM124.87 54.2291L141.97 2.62914L138.173 1.37086L121.073 52.9709L124.87 54.2291ZM115.652 55.6H122.972V51.6H115.652V55.6ZM130.853 1.37086L113.753 52.9709L117.55 54.2291L134.65 2.62914L130.853 1.37086ZM140.072 0H132.752V4H140.072V0ZM141.211 38.96V46.76H145.211V38.96H141.211ZM157.525 30.4697L142.405 37.1297L144.017 40.7903L159.137 34.1303L157.525 30.4697ZM142.399 27.4076L157.519 34.1276L159.143 30.4724L144.023 23.7524L142.399 27.4076ZM141.211 17.78V25.58H145.211V17.78H141.211ZM167.189 27.2628L144.089 15.9828L142.333 19.5772L165.433 30.8572L167.189 27.2628ZM168.311 35.42V29.06H164.311V35.42H168.311ZM144.092 48.5553L167.192 37.2153L165.43 33.6247L142.33 44.9647L144.092 48.5553Z" fill="black" mask="url(#path-2-outside-1)"/>
</svg>
