<svg width="169" height="69" viewBox="0 0 169 69" fill="none" xmlns="http://www.w3.org/2000/svg">
<path d="M37.605 65.15C36.385 65.15 35.43 64.805 34.74 64.115C34.06 63.415 33.72 62.435 33.72 61.175C33.72 60.465 33.85 59.81 34.11 59.21C34.37 58.61 34.77 58.125 35.31 57.755C35.85 57.385 36.515 57.2 37.305 57.2C38.045 57.2 38.685 57.375 39.225 57.725C39.765 58.065 40.175 58.525 40.455 59.105C40.735 59.675 40.875 60.3 40.875 60.98C40.875 61.17 40.81 61.33 40.68 61.46C40.56 61.59 40.395 61.655 40.185 61.655H35.1C35.18 62.355 35.44 62.9 35.88 63.29C36.32 63.68 36.935 63.875 37.725 63.875C38.145 63.875 38.51 63.835 38.82 63.755C39.14 63.675 39.45 63.56 39.75 63.41C39.83 63.37 39.92 63.35 40.02 63.35C40.18 63.35 40.32 63.405 40.44 63.515C40.56 63.625 40.62 63.765 40.62 63.935C40.62 64.155 40.49 64.34 40.23 64.49C39.84 64.71 39.455 64.875 39.075 64.985C38.695 65.095 38.205 65.15 37.605 65.15ZM39.525 60.545C39.495 60.055 39.365 59.645 39.135 59.315C38.915 58.985 38.64 58.745 38.31 58.595C37.98 58.435 37.645 58.355 37.305 58.355C36.965 58.355 36.63 58.435 36.3 58.595C35.97 58.745 35.695 58.985 35.475 59.315C35.255 59.645 35.13 60.055 35.1 60.545H39.525ZM43.0411 65C42.7711 65 42.5461 64.93 42.3661 64.79C42.1861 64.65 42.0961 64.455 42.0961 64.205C42.0961 63.975 42.1761 63.77 42.3361 63.59L46.6561 58.625H42.8611C42.6811 58.625 42.5311 58.565 42.4111 58.445C42.2911 58.325 42.2311 58.175 42.2311 57.995C42.2311 57.815 42.2911 57.665 42.4111 57.545C42.5311 57.415 42.6811 57.35 42.8611 57.35H47.4061C47.6661 57.35 47.8761 57.43 48.0361 57.59C48.1961 57.75 48.2761 57.955 48.2761 58.205C48.2761 58.435 48.2061 58.635 48.0661 58.805L43.8661 63.725H47.7211C47.9011 63.725 48.0511 63.79 48.1711 63.92C48.3011 64.04 48.3661 64.19 48.3661 64.37C48.3661 64.55 48.3011 64.7 48.1711 64.82C48.0511 64.94 47.9011 65 47.7211 65H43.0411ZM53.5718 65.15C52.3518 65.15 51.3968 64.805 50.7068 64.115C50.0268 63.415 49.6868 62.435 49.6868 61.175C49.6868 60.465 49.8168 59.81 50.0768 59.21C50.3368 58.61 50.7368 58.125 51.2768 57.755C51.8168 57.385 52.4818 57.2 53.2718 57.2C54.0118 57.2 54.6518 57.375 55.1918 57.725C55.7318 58.065 56.1418 58.525 56.4218 59.105C56.7018 59.675 56.8418 60.3 56.8418 60.98C56.8418 61.17 56.7768 61.33 56.6468 61.46C56.5268 61.59 56.3618 61.655 56.1518 61.655H51.0668C51.1468 62.355 51.4068 62.9 51.8468 63.29C52.2868 63.68 52.9018 63.875 53.6918 63.875C54.1118 63.875 54.4768 63.835 54.7868 63.755C55.1068 63.675 55.4168 63.56 55.7168 63.41C55.7968 63.37 55.8868 63.35 55.9868 63.35C56.1468 63.35 56.2868 63.405 56.4068 63.515C56.5268 63.625 56.5868 63.765 56.5868 63.935C56.5868 64.155 56.4568 64.34 56.1968 64.49C55.8068 64.71 55.4218 64.875 55.0418 64.985C54.6618 65.095 54.1718 65.15 53.5718 65.15ZM55.4918 60.545C55.4618 60.055 55.3318 59.645 55.1018 59.315C54.8818 58.985 54.6068 58.745 54.2768 58.595C53.9468 58.435 53.6118 58.355 53.2718 58.355C52.9318 58.355 52.5968 58.435 52.2668 58.595C51.9368 58.745 51.6618 58.985 51.4418 59.315C51.2218 59.645 51.0968 60.055 51.0668 60.545H55.4918ZM59.3229 65.075C59.1329 65.075 58.9729 65.01 58.8429 64.88C58.7129 64.75 58.6479 64.59 58.6479 64.4V54.665C58.6479 54.475 58.7129 54.315 58.8429 54.185C58.9729 54.045 59.1329 53.975 59.3229 53.975C59.5129 53.975 59.6729 54.045 59.8029 54.185C59.9429 54.315 60.0129 54.475 60.0129 54.665V60.8L63.5829 57.5C63.7329 57.37 63.8829 57.305 64.0329 57.305C64.2629 57.305 64.4279 57.37 64.5279 57.5C64.6379 57.63 64.6929 57.785 64.6929 57.965C64.6929 58.135 64.6079 58.305 64.4379 58.475L62.2779 60.41L64.9929 64.01C65.0929 64.14 65.1429 64.275 65.1429 64.415C65.1429 64.615 65.0779 64.775 64.9479 64.895C64.8179 65.015 64.6529 65.075 64.4529 65.075C64.3529 65.075 64.2529 65.05 64.1529 65C64.0529 64.95 63.9679 64.88 63.8979 64.79L61.3179 61.28L60.0129 62.465V64.4C60.0129 64.59 59.9429 64.75 59.8029 64.88C59.6729 65.01 59.5129 65.075 59.3229 65.075ZM67.4667 55.79C67.2567 55.79 67.0767 55.715 66.9267 55.565C66.7767 55.415 66.7017 55.235 66.7017 55.025V54.965C66.7017 54.755 66.7767 54.575 66.9267 54.425C67.0767 54.275 67.2567 54.2 67.4667 54.2H67.5567C67.7667 54.2 67.9467 54.275 68.0967 54.425C68.2467 54.575 68.3217 54.755 68.3217 54.965V55.025C68.3217 55.235 68.2467 55.415 68.0967 55.565C67.9467 55.715 67.7667 55.79 67.5567 55.79H67.4667ZM67.4967 65.075C67.3067 65.075 67.1467 65.01 67.0167 64.88C66.8867 64.75 66.8217 64.59 66.8217 64.4V57.965C66.8217 57.775 66.8867 57.615 67.0167 57.485C67.1467 57.345 67.3067 57.275 67.4967 57.275C67.6967 57.275 67.8617 57.34 67.9917 57.47C68.1217 57.6 68.1867 57.765 68.1867 57.965V64.4C68.1867 64.59 68.1167 64.75 67.9767 64.88C67.8467 65.01 67.6867 65.075 67.4967 65.075ZM73.9771 65.15C72.7571 65.15 71.8021 64.805 71.1121 64.115C70.4321 63.415 70.0921 62.435 70.0921 61.175C70.0921 60.465 70.2221 59.81 70.4821 59.21C70.7421 58.61 71.1421 58.125 71.6821 57.755C72.2221 57.385 72.8871 57.2 73.6771 57.2C74.4171 57.2 75.0571 57.375 75.5971 57.725C76.1371 58.065 76.5471 58.525 76.8271 59.105C77.1071 59.675 77.2471 60.3 77.2471 60.98C77.2471 61.17 77.1821 61.33 77.0521 61.46C76.9321 61.59 76.7671 61.655 76.5571 61.655H71.4721C71.5521 62.355 71.8121 62.9 72.2521 63.29C72.6921 63.68 73.3071 63.875 74.0971 63.875C74.5171 63.875 74.8821 63.835 75.1921 63.755C75.5121 63.675 75.8221 63.56 76.1221 63.41C76.2021 63.37 76.2921 63.35 76.3921 63.35C76.5521 63.35 76.6921 63.405 76.8121 63.515C76.9321 63.625 76.9921 63.765 76.9921 63.935C76.9921 64.155 76.8621 64.34 76.6021 64.49C76.2121 64.71 75.8271 64.875 75.4471 64.985C75.0671 65.095 74.5771 65.15 73.9771 65.15ZM75.8971 60.545C75.8671 60.055 75.7371 59.645 75.5071 59.315C75.2871 58.985 75.0121 58.745 74.6821 58.595C74.3521 58.435 74.0171 58.355 73.6771 58.355C73.3371 58.355 73.0021 58.435 72.6721 58.595C72.3421 58.745 72.0671 58.985 71.8471 59.315C71.6271 59.645 71.5021 60.055 71.4721 60.545H75.8971ZM79.7282 65.075C79.5382 65.075 79.3782 65.01 79.2482 64.88C79.1182 64.75 79.0532 64.59 79.0532 64.4V54.665C79.0532 54.475 79.1182 54.315 79.2482 54.185C79.3782 54.045 79.5382 53.975 79.7282 53.975C79.9282 53.975 80.0932 54.04 80.2232 54.17C80.3532 54.3 80.4182 54.465 80.4182 54.665V64.4C80.4182 64.59 80.3482 64.75 80.2082 64.88C80.0782 65.01 79.9182 65.075 79.7282 65.075ZM90.105 65.15C88.885 65.15 87.93 64.805 87.24 64.115C86.56 63.415 86.22 62.435 86.22 61.175C86.22 60.465 86.35 59.81 86.61 59.21C86.87 58.61 87.27 58.125 87.81 57.755C88.35 57.385 89.015 57.2 89.805 57.2C90.545 57.2 91.185 57.375 91.725 57.725C92.265 58.065 92.675 58.525 92.955 59.105C93.235 59.675 93.375 60.3 93.375 60.98C93.375 61.17 93.31 61.33 93.18 61.46C93.06 61.59 92.895 61.655 92.685 61.655H87.6C87.68 62.355 87.94 62.9 88.38 63.29C88.82 63.68 89.435 63.875 90.225 63.875C90.645 63.875 91.01 63.835 91.32 63.755C91.64 63.675 91.95 63.56 92.25 63.41C92.33 63.37 92.42 63.35 92.52 63.35C92.68 63.35 92.82 63.405 92.94 63.515C93.06 63.625 93.12 63.765 93.12 63.935C93.12 64.155 92.99 64.34 92.73 64.49C92.34 64.71 91.955 64.875 91.575 64.985C91.195 65.095 90.705 65.15 90.105 65.15ZM92.025 60.545C91.995 60.055 91.865 59.645 91.635 59.315C91.415 58.985 91.14 58.745 90.81 58.595C90.48 58.435 90.145 58.355 89.805 58.355C89.465 58.355 89.13 58.435 88.8 58.595C88.47 58.745 88.195 58.985 87.975 59.315C87.755 59.645 87.63 60.055 87.6 60.545H92.025ZM95.8561 65.075C95.6661 65.075 95.5061 65.01 95.3761 64.88C95.2461 64.75 95.1811 64.59 95.1811 64.4V54.665C95.1811 54.475 95.2461 54.315 95.3761 54.185C95.5061 54.045 95.6661 53.975 95.8561 53.975C96.0461 53.975 96.2061 54.045 96.3361 54.185C96.4761 54.315 96.5461 54.475 96.5461 54.665V60.8L100.116 57.5C100.266 57.37 100.416 57.305 100.566 57.305C100.796 57.305 100.961 57.37 101.061 57.5C101.171 57.63 101.226 57.785 101.226 57.965C101.226 58.135 101.141 58.305 100.971 58.475L98.8111 60.41L101.526 64.01C101.626 64.14 101.676 64.275 101.676 64.415C101.676 64.615 101.611 64.775 101.481 64.895C101.351 65.015 101.186 65.075 100.986 65.075C100.886 65.075 100.786 65.05 100.686 65C100.586 64.95 100.501 64.88 100.431 64.79L97.8511 61.28L96.5461 62.465V64.4C96.5461 64.59 96.4761 64.75 96.3361 64.88C96.2061 65.01 96.0461 65.075 95.8561 65.075ZM105.965 65.15C105.415 65.15 104.935 65.02 104.525 64.76C104.125 64.5 103.815 64.145 103.595 63.695C103.385 63.245 103.28 62.75 103.28 62.21V57.95C103.28 57.76 103.345 57.6 103.475 57.47C103.615 57.34 103.78 57.275 103.97 57.275C104.16 57.275 104.32 57.34 104.45 57.47C104.58 57.6 104.645 57.76 104.645 57.95V62.06C104.645 63.28 105.195 63.89 106.295 63.89C106.795 63.89 107.24 63.76 107.63 63.5C108.03 63.24 108.405 62.89 108.755 62.45V57.95C108.755 57.76 108.82 57.6 108.95 57.47C109.09 57.34 109.255 57.275 109.445 57.275C109.635 57.275 109.795 57.34 109.925 57.47C110.055 57.6 110.12 57.76 110.12 57.95V64.385C110.12 64.575 110.055 64.74 109.925 64.88C109.795 65.01 109.635 65.075 109.445 65.075C109.255 65.075 109.09 65.01 108.95 64.88C108.82 64.74 108.755 64.575 108.755 64.385V63.77C108.375 64.19 107.965 64.525 107.525 64.775C107.085 65.025 106.565 65.15 105.965 65.15ZM113.171 65.075C112.981 65.075 112.821 65.01 112.691 64.88C112.561 64.75 112.496 64.59 112.496 64.4V57.965C112.496 57.775 112.561 57.615 112.691 57.485C112.821 57.345 112.981 57.275 113.171 57.275C113.361 57.275 113.521 57.345 113.651 57.485C113.791 57.615 113.861 57.775 113.861 57.965V58.58C114.241 58.16 114.651 57.825 115.091 57.575C115.531 57.325 116.051 57.2 116.651 57.2C117.201 57.2 117.676 57.33 118.076 57.59C118.486 57.85 118.796 58.205 119.006 58.655C119.226 59.105 119.336 59.6 119.336 60.14V64.4C119.336 64.59 119.266 64.75 119.126 64.88C118.996 65.01 118.836 65.075 118.646 65.075C118.456 65.075 118.296 65.01 118.166 64.88C118.036 64.75 117.971 64.59 117.971 64.4V60.29C117.971 59.07 117.421 58.46 116.321 58.46C115.821 58.46 115.371 58.59 114.971 58.85C114.581 59.11 114.211 59.46 113.861 59.9V64.4C113.861 64.59 113.791 64.75 113.651 64.88C113.521 65.01 113.361 65.075 113.171 65.075ZM125.011 65.15C124.241 65.15 123.566 64.985 122.986 64.655C122.406 64.325 121.956 63.86 121.636 63.26C121.326 62.65 121.171 61.955 121.171 61.175C121.171 60.395 121.326 59.705 121.636 59.105C121.956 58.495 122.406 58.025 122.986 57.695C123.566 57.365 124.241 57.2 125.011 57.2C125.771 57.2 126.441 57.365 127.021 57.695C127.601 58.025 128.051 58.495 128.371 59.105C128.691 59.705 128.851 60.395 128.851 61.175C128.851 61.955 128.691 62.65 128.371 63.26C128.051 63.86 127.601 64.325 127.021 64.655C126.441 64.985 125.771 65.15 125.011 65.15ZM125.011 63.905C125.421 63.905 125.811 63.81 126.181 63.62C126.561 63.43 126.871 63.13 127.111 62.72C127.361 62.31 127.486 61.79 127.486 61.16C127.486 60.54 127.361 60.025 127.111 59.615C126.871 59.205 126.561 58.91 126.181 58.73C125.811 58.54 125.421 58.445 125.011 58.445C124.591 58.445 124.191 58.54 123.811 58.73C123.441 58.91 123.136 59.205 122.896 59.615C122.656 60.025 122.536 60.54 122.536 61.16C122.536 61.79 122.656 62.31 122.896 62.72C123.136 63.13 123.441 63.43 123.811 63.62C124.191 63.81 124.591 63.905 125.011 63.905ZM131.437 65.075C131.247 65.075 131.087 65.01 130.957 64.88C130.827 64.75 130.762 64.59 130.762 64.4V54.665C130.762 54.475 130.827 54.315 130.957 54.185C131.087 54.045 131.247 53.975 131.437 53.975C131.637 53.975 131.802 54.04 131.932 54.17C132.062 54.3 132.127 54.465 132.127 54.665V64.4C132.127 64.59 132.057 64.75 131.917 64.88C131.787 65.01 131.627 65.075 131.437 65.075ZM136.448 65.15C136.008 65.15 135.598 65.06 135.218 64.88C134.848 64.7 134.553 64.44 134.333 64.1C134.113 63.75 134.003 63.35 134.003 62.9C134.003 62.16 134.293 61.57 134.873 61.13C135.463 60.69 136.323 60.47 137.453 60.47H139.268V60.35C139.268 59.69 139.103 59.215 138.773 58.925C138.453 58.635 137.948 58.49 137.258 58.49C136.878 58.49 136.538 58.52 136.238 58.58C135.948 58.64 135.623 58.73 135.263 58.85C135.183 58.87 135.118 58.88 135.068 58.88C134.918 58.88 134.788 58.825 134.678 58.715C134.568 58.605 134.513 58.47 134.513 58.31C134.513 58.04 134.643 57.85 134.903 57.74C135.753 57.38 136.618 57.2 137.498 57.2C138.188 57.2 138.768 57.34 139.238 57.62C139.718 57.9 140.068 58.265 140.288 58.715C140.518 59.155 140.633 59.635 140.633 60.155V64.4C140.633 64.59 140.563 64.75 140.423 64.88C140.293 65.01 140.133 65.075 139.943 65.075C139.753 65.075 139.593 65.01 139.463 64.88C139.333 64.75 139.268 64.59 139.268 64.4V64.01C138.528 64.77 137.588 65.15 136.448 65.15ZM136.958 63.95C137.398 63.95 137.823 63.845 138.233 63.635C138.643 63.415 138.988 63.145 139.268 62.825V61.565H137.633C136.123 61.565 135.368 61.96 135.368 62.75C135.368 63.11 135.488 63.4 135.728 63.62C135.978 63.84 136.388 63.95 136.958 63.95Z" fill="white"/>
<path d="M34.74 64.115L34.5248 64.3241L34.5279 64.3271L34.74 64.115ZM35.31 57.755L35.4796 58.0025L35.4796 58.0025L35.31 57.755ZM39.225 57.725L39.0618 57.9768L39.0652 57.9789L39.225 57.725ZM40.455 59.105L40.1848 59.2354L40.1857 59.2373L40.455 59.105ZM40.68 61.46L40.4677 61.2477L40.4596 61.2565L40.68 61.46ZM35.1 61.655V61.355H34.7638L34.8019 61.6891L35.1 61.655ZM35.88 63.29L35.681 63.5145L35.681 63.5145L35.88 63.29ZM38.82 63.755L38.7472 63.4639L38.745 63.4645L38.82 63.755ZM39.75 63.41L39.6158 63.1417L39.6158 63.1417L39.75 63.41ZM40.44 63.515L40.6427 63.2939L40.44 63.515ZM40.23 64.49L40.3774 64.7513L40.3799 64.7499L40.23 64.49ZM39.075 64.985L39.1584 65.2732L39.1584 65.2732L39.075 64.985ZM39.525 60.545V60.845H39.8439L39.8244 60.5267L39.525 60.545ZM39.135 59.315L38.8853 59.4814L38.8889 59.4865L39.135 59.315ZM38.31 58.595L38.1791 58.865L38.1859 58.8681L38.31 58.595ZM36.3 58.595L36.4242 58.8682L36.4309 58.8649L36.3 58.595ZM35.475 59.315L35.7246 59.4814L35.7246 59.4814L35.475 59.315ZM35.1 60.545L34.8006 60.5267L34.7811 60.845H35.1V60.545ZM37.605 64.85C36.4435 64.85 35.5726 64.5233 34.9521 63.9029L34.5279 64.3271C35.2874 65.0867 36.3265 65.45 37.605 65.45V64.85ZM34.9552 63.906C34.3441 63.2769 34.02 62.3806 34.02 61.175H33.42C33.42 62.4894 33.7759 63.5531 34.5248 64.324L34.9552 63.906ZM34.02 61.175C34.02 60.5025 34.1429 59.8885 34.3853 59.3293L33.8347 59.0907C33.5571 59.7315 33.42 60.4275 33.42 61.175H34.02ZM34.3853 59.3293C34.6228 58.7812 34.9861 58.3406 35.4796 58.0025L35.1404 57.5075C34.5539 57.9094 34.1172 58.4388 33.8347 59.0907L34.3853 59.3293ZM35.4796 58.0025C35.9601 57.6732 36.5628 57.5 37.305 57.5V56.9C36.4672 56.9 35.7399 57.0968 35.1404 57.5075L35.4796 58.0025ZM37.305 57.5C37.996 57.5 38.5774 57.6628 39.0618 57.9767L39.3882 57.4733C38.7926 57.0872 38.094 56.9 37.305 56.9V57.5ZM39.0652 57.9789C39.5571 58.2886 39.9291 58.7056 40.1848 59.2354L40.7252 58.9746C40.4209 58.3444 39.9729 57.8414 39.3848 57.4711L39.0652 57.9789ZM40.1857 59.2373C40.4441 59.7632 40.575 60.3425 40.575 60.98H41.175C41.175 60.2575 41.0259 59.5868 40.7243 58.9727L40.1857 59.2373ZM40.575 60.98C40.575 61.0934 40.5395 61.1762 40.4679 61.2479L40.8921 61.6721C41.0805 61.4838 41.175 61.2466 41.175 60.98H40.575ZM40.4596 61.2565C40.407 61.3135 40.3283 61.355 40.185 61.355V61.955C40.4617 61.955 40.713 61.8665 40.9004 61.6635L40.4596 61.2565ZM40.185 61.355H35.1V61.955H40.185V61.355ZM34.8019 61.6891C34.8886 62.4472 35.1751 63.066 35.681 63.5145L36.079 63.0655C35.7049 62.734 35.4714 62.2628 35.3981 61.6209L34.8019 61.6891ZM35.681 63.5145C36.1924 63.9677 36.8872 64.175 37.725 64.175V63.575C36.9828 63.575 36.4476 63.3923 36.079 63.0655L35.681 63.5145ZM37.725 64.175C38.1629 64.175 38.5542 64.1334 38.895 64.0455L38.745 63.4645C38.4658 63.5366 38.1271 63.575 37.725 63.575V64.175ZM38.8928 64.046C39.2344 63.9606 39.5649 63.838 39.8842 63.6783L39.6158 63.1417C39.3351 63.282 39.0456 63.3894 38.7472 63.464L38.8928 64.046ZM39.8842 63.6783C39.9178 63.6615 39.961 63.65 40.02 63.65V63.05C39.879 63.05 39.7422 63.0785 39.6158 63.1417L39.8842 63.6783ZM40.02 63.65C40.1035 63.65 40.1715 63.6759 40.2373 63.7361L40.6427 63.2939C40.4685 63.1341 40.2565 63.05 40.02 63.05V63.65ZM40.2373 63.7361C40.2923 63.7865 40.32 63.8449 40.32 63.935H40.92C40.92 63.6851 40.8277 63.4635 40.6427 63.2939L40.2373 63.7361ZM40.32 63.935C40.32 64.01 40.2854 64.1117 40.0801 64.2301L40.3799 64.7499C40.6946 64.5683 40.92 64.3 40.92 63.935H40.32ZM40.0826 64.2287C39.7102 64.4388 39.3466 64.5941 38.9916 64.6968L39.1584 65.2732C39.5634 65.1559 39.9698 64.9812 40.3774 64.7513L40.0826 64.2287ZM38.9916 64.6968C38.6488 64.796 38.1897 64.85 37.605 64.85V65.45C38.2203 65.45 38.7412 65.394 39.1584 65.2732L38.9916 64.6968ZM39.8244 60.5267C39.7918 59.9938 39.6489 59.5277 39.3811 59.1435L38.8889 59.4865C39.0811 59.7623 39.1982 60.1162 39.2256 60.5633L39.8244 60.5267ZM39.3846 59.1486C39.1366 58.7766 38.8199 58.4972 38.4341 58.3219L38.1859 58.8681C38.4601 58.9928 38.6934 59.1934 38.8854 59.4814L39.3846 59.1486ZM38.4409 58.3251C38.0734 58.1469 37.6938 58.055 37.305 58.055V58.655C37.5962 58.655 37.8866 58.7231 38.1791 58.8649L38.4409 58.3251ZM37.305 58.055C36.9162 58.055 36.5366 58.1469 36.1691 58.3251L36.4309 58.8649C36.7234 58.7231 37.0138 58.655 37.305 58.655V58.055ZM36.1759 58.3219C35.7901 58.4972 35.4734 58.7766 35.2254 59.1486L35.7246 59.4814C35.9166 59.1934 36.1499 58.9928 36.4241 58.8681L36.1759 58.3219ZM35.2254 59.1486C34.9698 59.532 34.833 59.9962 34.8006 60.5267L35.3994 60.5633C35.427 60.1138 35.5402 59.758 35.7246 59.4814L35.2254 59.1486ZM35.1 60.845H39.525V60.245H35.1V60.845ZM42.3661 64.79L42.1819 65.0268L42.1819 65.0268L42.3661 64.79ZM42.3361 63.59L42.5603 63.7893L42.5624 63.7869L42.3361 63.59ZM46.6561 58.625L46.8824 58.8219L47.3148 58.325H46.6561V58.625ZM42.4111 58.445L42.199 58.6571L42.199 58.6571L42.4111 58.445ZM42.4111 57.545L42.6234 57.7573L42.6315 57.7485L42.4111 57.545ZM48.0361 57.59L47.824 57.8021L47.824 57.8021L48.0361 57.59ZM48.0661 58.805L48.2943 58.9998L48.2977 58.9957L48.0661 58.805ZM43.8661 63.725L43.6379 63.5302L43.2156 64.025H43.8661V63.725ZM48.1711 63.92L47.9507 64.1235L47.9588 64.1323L47.9676 64.1404L48.1711 63.92ZM48.1711 64.82L47.9674 64.5994L47.959 64.6079L48.1711 64.82ZM43.0411 64.7C42.8251 64.7 42.6684 64.645 42.5503 64.5532L42.1819 65.0268C42.4238 65.215 42.7171 65.3 43.0411 65.3V64.7ZM42.5503 64.5532C42.4511 64.476 42.3961 64.3727 42.3961 64.205H41.7961C41.7961 64.5373 41.9211 64.824 42.1819 65.0268L42.5503 64.5532ZM42.3961 64.205C42.3961 64.0522 42.4466 63.9172 42.5603 63.7893L42.1119 63.3907C41.9056 63.6228 41.7961 63.8978 41.7961 64.205H42.3961ZM42.5624 63.7869L46.8824 58.8219L46.4298 58.4281L42.1098 63.3931L42.5624 63.7869ZM46.6561 58.325H42.8611V58.925H46.6561V58.325ZM42.8611 58.325C42.7553 58.325 42.6833 58.2929 42.6232 58.2329L42.199 58.6571C42.3789 58.8371 42.6069 58.925 42.8611 58.925V58.325ZM42.6232 58.2329C42.5632 58.1728 42.5311 58.1008 42.5311 57.995H41.9311C41.9311 58.2492 42.019 58.4772 42.199 58.6571L42.6232 58.2329ZM42.5311 57.995C42.5311 57.8892 42.5632 57.8172 42.6232 57.7571L42.199 57.3329C42.019 57.5128 41.9311 57.7408 41.9311 57.995H42.5311ZM42.6315 57.7485C42.6936 57.6812 42.7632 57.65 42.8611 57.65V57.05C42.599 57.05 42.3686 57.1488 42.1907 57.3415L42.6315 57.7485ZM42.8611 57.65H47.4061V57.05H42.8611V57.65ZM47.4061 57.65C47.5994 57.65 47.7287 57.7069 47.824 57.8021L48.2482 57.3779C48.0235 57.1531 47.7328 57.05 47.4061 57.05V57.65ZM47.824 57.8021C47.9215 57.8997 47.9761 58.0254 47.9761 58.205H48.5761C48.5761 57.8846 48.4706 57.6003 48.2482 57.3779L47.824 57.8021ZM47.9761 58.205C47.9761 58.3688 47.9282 58.5005 47.8345 58.6143L48.2977 58.9957C48.484 58.7695 48.5761 58.5012 48.5761 58.205H47.9761ZM47.8379 58.6102L43.6379 63.5302L44.0943 63.9198L48.2943 58.9998L47.8379 58.6102ZM43.8661 64.025H47.7211V63.425H43.8661V64.025ZM47.7211 64.025C47.819 64.025 47.8886 64.0562 47.9507 64.1235L48.3915 63.7165C48.2136 63.5238 47.9832 63.425 47.7211 63.425V64.025ZM47.9676 64.1404C48.0349 64.2025 48.0661 64.2721 48.0661 64.37H48.6661C48.6661 64.1079 48.5673 63.8775 48.3746 63.6996L47.9676 64.1404ZM48.0661 64.37C48.0661 64.4679 48.0349 64.5375 47.9676 64.5996L48.3746 65.0404C48.5673 64.8625 48.6661 64.6321 48.6661 64.37H48.0661ZM47.959 64.6079C47.8989 64.6679 47.8269 64.7 47.7211 64.7V65.3C47.9753 65.3 48.2033 65.2121 48.3832 65.0321L47.959 64.6079ZM47.7211 64.7H43.0411V65.3H47.7211V64.7ZM50.7068 64.115L50.4916 64.3241L50.4947 64.3271L50.7068 64.115ZM51.2768 57.755L51.4464 58.0025L51.4464 58.0025L51.2768 57.755ZM55.1918 57.725L55.0286 57.9768L55.032 57.9789L55.1918 57.725ZM56.4218 59.105L56.1516 59.2354L56.1525 59.2373L56.4218 59.105ZM56.6468 61.46L56.4345 61.2477L56.4264 61.2565L56.6468 61.46ZM51.0668 61.655V61.355H50.7306L50.7687 61.6891L51.0668 61.655ZM51.8468 63.29L51.6478 63.5145L51.6478 63.5145L51.8468 63.29ZM54.7868 63.755L54.714 63.4639L54.7118 63.4645L54.7868 63.755ZM55.7168 63.41L55.5826 63.1417L55.5826 63.1417L55.7168 63.41ZM56.4068 63.515L56.6095 63.2939L56.4068 63.515ZM56.1968 64.49L56.3442 64.7513L56.3467 64.7499L56.1968 64.49ZM55.0418 64.985L55.1252 65.2732L55.1252 65.2732L55.0418 64.985ZM55.4918 60.545V60.845H55.8107L55.7912 60.5267L55.4918 60.545ZM55.1018 59.315L54.8521 59.4814L54.8557 59.4865L55.1018 59.315ZM54.2768 58.595L54.1459 58.865L54.1527 58.8681L54.2768 58.595ZM52.2668 58.595L52.391 58.8682L52.3977 58.8649L52.2668 58.595ZM51.4418 59.315L51.6914 59.4814L51.6914 59.4814L51.4418 59.315ZM51.0668 60.545L50.7674 60.5267L50.7479 60.845H51.0668V60.545ZM53.5718 64.85C52.4103 64.85 51.5394 64.5233 50.9189 63.9029L50.4947 64.3271C51.2542 65.0867 52.2933 65.45 53.5718 65.45V64.85ZM50.922 63.906C50.3109 63.2769 49.9868 62.3806 49.9868 61.175H49.3868C49.3868 62.4894 49.7427 63.5531 50.4916 64.324L50.922 63.906ZM49.9868 61.175C49.9868 60.5025 50.1097 59.8885 50.3521 59.3293L49.8015 59.0907C49.5239 59.7315 49.3868 60.4275 49.3868 61.175H49.9868ZM50.3521 59.3293C50.5896 58.7812 50.9529 58.3406 51.4464 58.0025L51.1072 57.5075C50.5207 57.9094 50.084 58.4388 49.8015 59.0907L50.3521 59.3293ZM51.4464 58.0025C51.9269 57.6732 52.5296 57.5 53.2718 57.5V56.9C52.434 56.9 51.7067 57.0968 51.1072 57.5075L51.4464 58.0025ZM53.2718 57.5C53.9628 57.5 54.5442 57.6628 55.0286 57.9767L55.355 57.4733C54.7594 57.0872 54.0608 56.9 53.2718 56.9V57.5ZM55.032 57.9789C55.5239 58.2886 55.8959 58.7056 56.1516 59.2354L56.692 58.9746C56.3877 58.3444 55.9397 57.8414 55.3516 57.4711L55.032 57.9789ZM56.1525 59.2373C56.4109 59.7632 56.5418 60.3425 56.5418 60.98H57.1418C57.1418 60.2575 56.9927 59.5868 56.6911 58.9727L56.1525 59.2373ZM56.5418 60.98C56.5418 61.0934 56.5063 61.1762 56.4347 61.2479L56.8589 61.6721C57.0473 61.4838 57.1418 61.2466 57.1418 60.98H56.5418ZM56.4264 61.2565C56.3738 61.3135 56.2951 61.355 56.1518 61.355V61.955C56.4285 61.955 56.6798 61.8665 56.8672 61.6635L56.4264 61.2565ZM56.1518 61.355H51.0668V61.955H56.1518V61.355ZM50.7687 61.6891C50.8554 62.4472 51.1419 63.066 51.6478 63.5145L52.0458 63.0655C51.6717 62.734 51.4382 62.2628 51.3649 61.6209L50.7687 61.6891ZM51.6478 63.5145C52.1592 63.9677 52.854 64.175 53.6918 64.175V63.575C52.9496 63.575 52.4144 63.3923 52.0458 63.0655L51.6478 63.5145ZM53.6918 64.175C54.1297 64.175 54.521 64.1334 54.8618 64.0455L54.7118 63.4645C54.4326 63.5366 54.0939 63.575 53.6918 63.575V64.175ZM54.8596 64.046C55.2011 63.9606 55.5317 63.838 55.851 63.6783L55.5826 63.1417C55.3019 63.282 55.0124 63.3894 54.714 63.464L54.8596 64.046ZM55.851 63.6783C55.8846 63.6615 55.9278 63.65 55.9868 63.65V63.05C55.8458 63.05 55.709 63.0785 55.5826 63.1417L55.851 63.6783ZM55.9868 63.65C56.0703 63.65 56.1383 63.6759 56.2041 63.7361L56.6095 63.2939C56.4353 63.1341 56.2233 63.05 55.9868 63.05V63.65ZM56.2041 63.7361C56.2591 63.7865 56.2868 63.8449 56.2868 63.935H56.8868C56.8868 63.6851 56.7945 63.4635 56.6095 63.2939L56.2041 63.7361ZM56.2868 63.935C56.2868 64.01 56.2522 64.1117 56.0469 64.2301L56.3467 64.7499C56.6614 64.5683 56.8868 64.3 56.8868 63.935H56.2868ZM56.0494 64.2287C55.677 64.4388 55.3134 64.5941 54.9584 64.6968L55.1252 65.2732C55.5302 65.1559 55.9366 64.9812 56.3442 64.7513L56.0494 64.2287ZM54.9584 64.6968C54.6156 64.796 54.1565 64.85 53.5718 64.85V65.45C54.1871 65.45 54.708 65.394 55.1252 65.2732L54.9584 64.6968ZM55.7912 60.5267C55.7586 59.9938 55.6157 59.5277 55.3479 59.1435L54.8557 59.4865C55.0479 59.7623 55.165 60.1162 55.1924 60.5633L55.7912 60.5267ZM55.3514 59.1486C55.1034 58.7766 54.7866 58.4972 54.4009 58.3219L54.1527 58.8681C54.4269 58.9928 54.6602 59.1934 54.8522 59.4814L55.3514 59.1486ZM54.4077 58.3251C54.0402 58.1469 53.6606 58.055 53.2718 58.055V58.655C53.563 58.655 53.8534 58.7231 54.1459 58.8649L54.4077 58.3251ZM53.2718 58.055C52.883 58.055 52.5034 58.1469 52.1359 58.3251L52.3977 58.8649C52.6902 58.7231 52.9806 58.655 53.2718 58.655V58.055ZM52.1427 58.3219C51.7569 58.4972 51.4402 58.7766 51.1922 59.1486L51.6914 59.4814C51.8834 59.1934 52.1166 58.9928 52.3909 58.8681L52.1427 58.3219ZM51.1922 59.1486C50.9366 59.532 50.7998 59.9962 50.7674 60.5267L51.3662 60.5633C51.3938 60.1138 51.507 59.758 51.6914 59.4814L51.1922 59.1486ZM51.0668 60.845H55.4918V60.245H51.0668V60.845ZM58.8429 64.88L59.055 64.6679L59.055 64.6679L58.8429 64.88ZM58.8429 54.185L59.0552 54.3973L59.0627 54.3891L58.8429 54.185ZM59.8029 54.185L59.5831 54.3891L59.5906 54.3973L59.5988 54.4048L59.8029 54.185ZM60.0129 60.8H59.7129V61.4858L60.2165 61.0203L60.0129 60.8ZM63.5829 57.5L63.3863 57.2732L63.3793 57.2797L63.5829 57.5ZM64.5279 57.5L64.2898 57.6831L64.2989 57.6938L64.5279 57.5ZM64.4379 58.475L64.6381 58.6985L64.6442 58.693L64.65 58.6871L64.4379 58.475ZM62.2779 60.41L62.0777 60.1865L61.8724 60.3705L62.0384 60.5906L62.2779 60.41ZM64.9929 64.01L64.7534 64.1906L64.7551 64.1929L64.9929 64.01ZM64.9479 64.895L64.7444 64.6746L64.7444 64.6746L64.9479 64.895ZM64.1529 65L64.0187 65.2683L64.0187 65.2683L64.1529 65ZM63.8979 64.79L63.6561 64.9677L63.6611 64.9742L63.8979 64.79ZM61.3179 61.28L61.5596 61.1023L61.3625 60.8342L61.1162 61.0579L61.3179 61.28ZM60.0129 62.465L59.8112 62.2429L59.7129 62.3322V62.465H60.0129ZM59.8029 64.88L59.5986 64.66L59.5908 64.6679L59.8029 64.88ZM59.3229 64.775C59.2095 64.775 59.1267 64.7395 59.055 64.6679L58.6308 65.0921C58.8191 65.2805 59.0563 65.375 59.3229 65.375V64.775ZM59.055 64.6679C58.9834 64.5962 58.9479 64.5134 58.9479 64.4H58.3479C58.3479 64.6666 58.4424 64.9038 58.6308 65.0921L59.055 64.6679ZM58.9479 64.4V54.665H58.3479V64.4H58.9479ZM58.9479 54.665C58.9479 54.5516 58.9834 54.4688 59.055 54.3971L58.6308 53.9729C58.4424 54.1612 58.3479 54.3984 58.3479 54.665H58.9479ZM59.0627 54.3891C59.1363 54.3099 59.2168 54.275 59.3229 54.275V53.675C59.0489 53.675 58.8095 53.7801 58.6231 53.9809L59.0627 54.3891ZM59.3229 54.275C59.4289 54.275 59.5095 54.3099 59.5831 54.3891L60.0227 53.9809C59.8363 53.7801 59.5968 53.675 59.3229 53.675V54.275ZM59.5988 54.4048C59.678 54.4784 59.7129 54.5589 59.7129 54.665H60.3129C60.3129 54.3911 60.2078 54.1516 60.007 53.9652L59.5988 54.4048ZM59.7129 54.665V60.8H60.3129V54.665H59.7129ZM60.2165 61.0203L63.7865 57.7203L63.3793 57.2797L59.8093 60.5797L60.2165 61.0203ZM63.7794 57.7267C63.8927 57.6285 63.9757 57.605 64.0329 57.605V57.005C63.7901 57.005 63.5731 57.1115 63.3864 57.2733L63.7794 57.7267ZM64.0329 57.605C64.2095 57.605 64.2674 57.6534 64.2901 57.6829L64.7657 57.3171C64.5884 57.0866 64.3163 57.005 64.0329 57.005V57.605ZM64.2989 57.6938C64.3603 57.7664 64.3929 57.8516 64.3929 57.965H64.9929C64.9929 57.7184 64.9155 57.4936 64.7569 57.3062L64.2989 57.6938ZM64.3929 57.965C64.3929 58.0274 64.3631 58.1256 64.2258 58.2629L64.65 58.6871C64.8527 58.4844 64.9929 58.2426 64.9929 57.965H64.3929ZM64.2377 58.2515L62.0777 60.1865L62.4781 60.6335L64.6381 58.6985L64.2377 58.2515ZM62.0384 60.5906L64.7534 64.1906L65.2324 63.8294L62.5174 60.2294L62.0384 60.5906ZM64.7551 64.1929C64.822 64.2798 64.8429 64.3521 64.8429 64.415H65.4429C65.4429 64.1979 65.3638 64.0002 65.2307 63.8271L64.7551 64.1929ZM64.8429 64.415C64.8429 64.5433 64.8045 64.619 64.7444 64.6746L65.1514 65.1154C65.3512 64.931 65.4429 64.6867 65.4429 64.415H64.8429ZM64.7444 64.6746C64.6771 64.7366 64.5881 64.775 64.4529 64.775V65.375C64.7177 65.375 64.9586 65.2934 65.1514 65.1154L64.7444 64.6746ZM64.4529 64.775C64.4047 64.775 64.3504 64.7633 64.2871 64.7317L64.0187 65.2683C64.1554 65.3367 64.3011 65.375 64.4529 65.375V64.775ZM64.2871 64.7317C64.2279 64.7021 64.1778 64.6612 64.1347 64.6058L63.6611 64.9742C63.758 65.0988 63.8778 65.1979 64.0187 65.2683L64.2871 64.7317ZM64.1396 64.6123L61.5596 61.1023L61.0762 61.4577L63.6562 64.9677L64.1396 64.6123ZM61.1162 61.0579L59.8112 62.2429L60.2146 62.6871L61.5196 61.5021L61.1162 61.0579ZM59.7129 62.465V64.4H60.3129V62.465H59.7129ZM59.7129 64.4C59.7129 64.5061 59.678 64.5866 59.5988 64.6602L60.007 65.0998C60.2078 64.9134 60.3129 64.6739 60.3129 64.4H59.7129ZM59.5908 64.6679C59.5191 64.7395 59.4363 64.775 59.3229 64.775V65.375C59.5895 65.375 59.8267 65.2805 60.015 65.0921L59.5908 64.6679ZM66.9267 55.565L66.7146 55.7771L66.7146 55.7771L66.9267 55.565ZM68.0967 55.565L68.3089 55.7771L68.3089 55.7771L68.0967 55.565ZM67.0167 64.88L67.2289 64.6679L67.2289 64.6679L67.0167 64.88ZM67.0167 57.485L67.229 57.6973L67.2366 57.6891L67.0167 57.485ZM67.9917 57.47L68.2039 57.2579L67.9917 57.47ZM67.9767 64.88L67.7724 64.66L67.7646 64.6679L67.9767 64.88ZM67.4667 55.49C67.3372 55.49 67.2332 55.4472 67.1389 55.3529L66.7146 55.7771C66.9202 55.9828 67.1763 56.09 67.4667 56.09V55.49ZM67.1389 55.3529C67.0445 55.2585 67.0017 55.1545 67.0017 55.025H66.4017C66.4017 55.3155 66.509 55.5715 66.7146 55.7771L67.1389 55.3529ZM67.0017 55.025V54.965H66.4017V55.025H67.0017ZM67.0017 54.965C67.0017 54.8355 67.0445 54.7315 67.1389 54.6371L66.7146 54.2129C66.509 54.4185 66.4017 54.6745 66.4017 54.965H67.0017ZM67.1389 54.6371C67.2332 54.5428 67.3372 54.5 67.4667 54.5V53.9C67.1763 53.9 66.9202 54.0072 66.7146 54.2129L67.1389 54.6371ZM67.4667 54.5H67.5567V53.9H67.4667V54.5ZM67.5567 54.5C67.6863 54.5 67.7902 54.5428 67.8846 54.6371L68.3089 54.2129C68.1032 54.0072 67.8472 53.9 67.5567 53.9V54.5ZM67.8846 54.6371C67.979 54.7315 68.0217 54.8355 68.0217 54.965H68.6217C68.6217 54.6745 68.5145 54.4185 68.3089 54.2129L67.8846 54.6371ZM68.0217 54.965V55.025H68.6217V54.965H68.0217ZM68.0217 55.025C68.0217 55.1545 67.979 55.2585 67.8846 55.3529L68.3089 55.7771C68.5145 55.5715 68.6217 55.3155 68.6217 55.025H68.0217ZM67.8846 55.3529C67.7902 55.4472 67.6863 55.49 67.5567 55.49V56.09C67.8472 56.09 68.1032 55.9828 68.3089 55.7771L67.8846 55.3529ZM67.5567 55.49H67.4667V56.09H67.5567V55.49ZM67.4967 64.775C67.3833 64.775 67.3005 64.7395 67.2289 64.6679L66.8046 65.0921C66.9929 65.2805 67.2301 65.375 67.4967 65.375V64.775ZM67.2289 64.6679C67.1572 64.5962 67.1217 64.5134 67.1217 64.4H66.5217C66.5217 64.6666 66.6163 64.9038 66.8046 65.0921L67.2289 64.6679ZM67.1217 64.4V57.965H66.5217V64.4H67.1217ZM67.1217 57.965C67.1217 57.8516 67.1572 57.7688 67.2289 57.6971L66.8046 57.2729C66.6163 57.4612 66.5217 57.6984 66.5217 57.965H67.1217ZM67.2366 57.6891C67.3102 57.6099 67.3907 57.575 67.4967 57.575V56.975C67.2228 56.975 66.9833 57.0801 66.7969 57.2809L67.2366 57.6891ZM67.4967 57.575C67.6249 57.575 67.7111 57.6136 67.7796 57.6821L68.2039 57.2579C68.0124 57.0664 67.7686 56.975 67.4967 56.975V57.575ZM67.7796 57.6821C67.8481 57.7506 67.8867 57.8369 67.8867 57.965H68.4867C68.4867 57.6931 68.3953 57.4494 68.2039 57.2579L67.7796 57.6821ZM67.8867 57.965V64.4H68.4867V57.965H67.8867ZM67.8867 64.4C67.8867 64.5061 67.8518 64.5866 67.7726 64.6602L68.1809 65.0998C68.3816 64.9134 68.4867 64.6739 68.4867 64.4H67.8867ZM67.7646 64.6679C67.6929 64.7395 67.6101 64.775 67.4967 64.775V65.375C67.7633 65.375 68.0005 65.2805 68.1889 65.0921L67.7646 64.6679ZM71.1121 64.115L70.8969 64.3241L70.8999 64.3271L71.1121 64.115ZM71.6821 57.755L71.8516 58.0025L71.8516 58.0025L71.6821 57.755ZM75.5971 57.725L75.4339 57.9768L75.4372 57.9789L75.5971 57.725ZM76.8271 59.105L76.5569 59.2354L76.5578 59.2373L76.8271 59.105ZM77.0521 61.46L76.8398 61.2477L76.8316 61.2565L77.0521 61.46ZM71.4721 61.655V61.355H71.1358L71.174 61.6891L71.4721 61.655ZM72.2521 63.29L72.0531 63.5145L72.0531 63.5145L72.2521 63.29ZM75.1921 63.755L75.1193 63.4639L75.1171 63.4645L75.1921 63.755ZM76.1221 63.41L75.9879 63.1417L75.9879 63.1417L76.1221 63.41ZM76.8121 63.515L77.0148 63.2939L76.8121 63.515ZM76.6021 64.49L76.7495 64.7513L76.752 64.7499L76.6021 64.49ZM75.4471 64.985L75.5305 65.2732L75.5305 65.2732L75.4471 64.985ZM75.8971 60.545V60.845H76.216L76.1965 60.5267L75.8971 60.545ZM75.5071 59.315L75.2574 59.4814L75.261 59.4865L75.5071 59.315ZM74.6821 58.595L74.5511 58.865L74.5579 58.8681L74.6821 58.595ZM72.6721 58.595L72.7962 58.8682L72.803 58.8649L72.6721 58.595ZM71.8471 59.315L72.0967 59.4814L72.0967 59.4814L71.8471 59.315ZM71.4721 60.545L71.1726 60.5267L71.1531 60.845H71.4721V60.545ZM73.9771 64.85C72.8156 64.85 71.9446 64.5233 71.3242 63.9029L70.8999 64.3271C71.6595 65.0867 72.6985 65.45 73.9771 65.45V64.85ZM71.3273 63.906C70.7161 63.2769 70.3921 62.3806 70.3921 61.175H69.7921C69.7921 62.4894 70.148 63.5531 70.8969 64.324L71.3273 63.906ZM70.3921 61.175C70.3921 60.5025 70.515 59.8885 70.7573 59.3293L70.2068 59.0907C69.9291 59.7315 69.7921 60.4275 69.7921 61.175H70.3921ZM70.7573 59.3293C70.9949 58.7812 71.3582 58.3406 71.8516 58.0025L71.5125 57.5075C70.926 57.9094 70.4893 58.4388 70.2068 59.0907L70.7573 59.3293ZM71.8516 58.0025C72.3322 57.6732 72.9349 57.5 73.6771 57.5V56.9C72.8393 56.9 72.112 57.0968 71.5125 57.5075L71.8516 58.0025ZM73.6771 57.5C74.3681 57.5 74.9495 57.6628 75.4339 57.9767L75.7602 57.4733C75.1647 57.0872 74.4661 56.9 73.6771 56.9V57.5ZM75.4372 57.9789C75.9291 58.2886 76.3011 58.7056 76.5569 59.2354L77.0972 58.9746C76.793 58.3444 76.345 57.8414 75.7569 57.4711L75.4372 57.9789ZM76.5578 59.2373C76.8162 59.7632 76.9471 60.3425 76.9471 60.98H77.5471C77.5471 60.2575 77.398 59.5868 77.0963 58.9727L76.5578 59.2373ZM76.9471 60.98C76.9471 61.0934 76.9116 61.1762 76.8399 61.2479L77.2642 61.6721C77.4525 61.4838 77.5471 61.2466 77.5471 60.98H76.9471ZM76.8316 61.2565C76.779 61.3135 76.7004 61.355 76.5571 61.355V61.955C76.8338 61.955 77.0851 61.8665 77.2725 61.6635L76.8316 61.2565ZM76.5571 61.355H71.4721V61.955H76.5571V61.355ZM71.174 61.6891C71.2607 62.4472 71.5471 63.066 72.0531 63.5145L72.4511 63.0655C72.077 62.734 71.8435 62.2628 71.7701 61.6209L71.174 61.6891ZM72.0531 63.5145C72.5644 63.9677 73.2592 64.175 74.0971 64.175V63.575C73.3549 63.575 72.8197 63.3923 72.4511 63.0655L72.0531 63.5145ZM74.0971 64.175C74.535 64.175 74.9263 64.1334 75.267 64.0455L75.1171 63.4645C74.8378 63.5366 74.4992 63.575 74.0971 63.575V64.175ZM75.2648 64.046C75.6064 63.9606 75.937 63.838 76.2562 63.6783L75.9879 63.1417C75.7072 63.282 75.4177 63.3894 75.1193 63.464L75.2648 64.046ZM76.2562 63.6783C76.2899 63.6615 76.3331 63.65 76.3921 63.65V63.05C76.2511 63.05 76.1143 63.0785 75.9879 63.1417L76.2562 63.6783ZM76.3921 63.65C76.4756 63.65 76.5436 63.6759 76.6094 63.7361L77.0148 63.2939C76.8405 63.1341 76.6286 63.05 76.3921 63.05V63.65ZM76.6094 63.7361C76.6643 63.7865 76.6921 63.8449 76.6921 63.935H77.2921C77.2921 63.6851 77.1998 63.4635 77.0148 63.2939L76.6094 63.7361ZM76.6921 63.935C76.6921 64.01 76.6575 64.1117 76.4522 64.2301L76.752 64.7499C77.0667 64.5683 77.2921 64.3 77.2921 63.935H76.6921ZM76.4547 64.2287C76.0823 64.4388 75.7187 64.5941 75.3637 64.6968L75.5305 65.2732C75.9355 65.1559 76.3419 64.9812 76.7495 64.7513L76.4547 64.2287ZM75.3637 64.6968C75.0209 64.796 74.5618 64.85 73.9771 64.85V65.45C74.5923 65.45 75.1132 65.394 75.5305 65.2732L75.3637 64.6968ZM76.1965 60.5267C76.1639 59.9938 76.021 59.5277 75.7532 59.1435L75.261 59.4865C75.4532 59.7623 75.5703 60.1162 75.5976 60.5633L76.1965 60.5267ZM75.7567 59.1486C75.5087 58.7766 75.1919 58.4972 74.8062 58.3219L74.5579 58.8681C74.8322 58.9928 75.0655 59.1934 75.2575 59.4814L75.7567 59.1486ZM74.813 58.3251C74.4454 58.1469 74.0659 58.055 73.6771 58.055V58.655C73.9682 58.655 74.2587 58.7231 74.5512 58.8649L74.813 58.3251ZM73.6771 58.055C73.2882 58.055 72.9087 58.1469 72.5412 58.3251L72.803 58.8649C73.0954 58.7231 73.3859 58.655 73.6771 58.655V58.055ZM72.5479 58.3219C72.1622 58.4972 71.8455 58.7766 71.5975 59.1486L72.0967 59.4814C72.2887 59.1934 72.5219 58.9928 72.7962 58.8681L72.5479 58.3219ZM71.5975 59.1486C71.3418 59.532 71.2051 59.9962 71.1726 60.5267L71.7715 60.5633C71.799 60.1138 71.9123 59.758 72.0967 59.4814L71.5975 59.1486ZM71.4721 60.845H75.8971V60.245H71.4721V60.845ZM79.2482 64.88L79.4603 64.6679L79.4603 64.6679L79.2482 64.88ZM79.2482 54.185L79.4604 54.3973L79.468 54.3891L79.2482 54.185ZM80.2232 54.17L80.4353 53.9579L80.4353 53.9579L80.2232 54.17ZM80.2082 64.88L80.0039 64.66L79.996 64.6679L80.2082 64.88ZM79.7282 64.775C79.6148 64.775 79.532 64.7395 79.4603 64.6679L79.036 65.0921C79.2244 65.2805 79.4616 65.375 79.7282 65.375V64.775ZM79.4603 64.6679C79.3886 64.5962 79.3532 64.5134 79.3532 64.4H78.7532C78.7532 64.6666 78.8477 64.9038 79.036 65.0921L79.4603 64.6679ZM79.3532 64.4V54.665H78.7532V64.4H79.3532ZM79.3532 54.665C79.3532 54.5516 79.3886 54.4688 79.4603 54.3971L79.036 53.9729C78.8477 54.1612 78.7532 54.3984 78.7532 54.665H79.3532ZM79.468 54.3891C79.5416 54.3099 79.6221 54.275 79.7282 54.275V53.675C79.4542 53.675 79.2147 53.7801 79.0283 53.9809L79.468 54.3891ZM79.7282 54.275C79.8563 54.275 79.9425 54.3136 80.011 54.3821L80.4353 53.9579C80.2438 53.7664 80 53.675 79.7282 53.675V54.275ZM80.011 54.3821C80.0795 54.4506 80.1182 54.5369 80.1182 54.665H80.7182C80.7182 54.3931 80.6268 54.1494 80.4353 53.9579L80.011 54.3821ZM80.1182 54.665V64.4H80.7182V54.665H80.1182ZM80.1182 64.4C80.1182 64.5061 80.0833 64.5866 80.004 64.6602L80.4123 65.0998C80.613 64.9134 80.7182 64.6739 80.7182 64.4H80.1182ZM79.996 64.6679C79.9244 64.7395 79.8416 64.775 79.7282 64.775V65.375C79.9948 65.375 80.232 65.2805 80.4203 65.0921L79.996 64.6679ZM87.24 64.115L87.0248 64.3241L87.0279 64.3271L87.24 64.115ZM87.81 57.755L87.9796 58.0025L87.9796 58.0025L87.81 57.755ZM91.725 57.725L91.5618 57.9768L91.5652 57.9789L91.725 57.725ZM92.955 59.105L92.6848 59.2354L92.6857 59.2373L92.955 59.105ZM93.18 61.46L92.9677 61.2477L92.9596 61.2565L93.18 61.46ZM87.6 61.655V61.355H87.2638L87.3019 61.6891L87.6 61.655ZM88.38 63.29L88.181 63.5145L88.181 63.5145L88.38 63.29ZM91.32 63.755L91.2472 63.4639L91.245 63.4645L91.32 63.755ZM92.25 63.41L92.1158 63.1417L92.1158 63.1417L92.25 63.41ZM92.94 63.515L93.1427 63.2939L92.94 63.515ZM92.73 64.49L92.8774 64.7513L92.8799 64.7499L92.73 64.49ZM91.575 64.985L91.6584 65.2732L91.6584 65.2732L91.575 64.985ZM92.025 60.545V60.845H92.3439L92.3244 60.5267L92.025 60.545ZM91.635 59.315L91.3853 59.4814L91.3889 59.4865L91.635 59.315ZM90.81 58.595L90.6791 58.865L90.6859 58.8681L90.81 58.595ZM88.8 58.595L88.9242 58.8682L88.9309 58.8649L88.8 58.595ZM87.975 59.315L88.2246 59.4814L88.2246 59.4814L87.975 59.315ZM87.6 60.545L87.3006 60.5267L87.2811 60.845H87.6V60.545ZM90.105 64.85C88.9435 64.85 88.0726 64.5233 87.4521 63.9029L87.0279 64.3271C87.7874 65.0867 88.8265 65.45 90.105 65.45V64.85ZM87.4552 63.906C86.8441 63.2769 86.52 62.3806 86.52 61.175H85.92C85.92 62.4894 86.2759 63.5531 87.0248 64.324L87.4552 63.906ZM86.52 61.175C86.52 60.5025 86.6429 59.8885 86.8853 59.3293L86.3347 59.0907C86.0571 59.7315 85.92 60.4275 85.92 61.175H86.52ZM86.8853 59.3293C87.1228 58.7812 87.4861 58.3406 87.9796 58.0025L87.6404 57.5075C87.0539 57.9094 86.6172 58.4388 86.3347 59.0907L86.8853 59.3293ZM87.9796 58.0025C88.4601 57.6732 89.0628 57.5 89.805 57.5V56.9C88.9672 56.9 88.2399 57.0968 87.6404 57.5075L87.9796 58.0025ZM89.805 57.5C90.496 57.5 91.0774 57.6628 91.5618 57.9767L91.8882 57.4733C91.2926 57.0872 90.594 56.9 89.805 56.9V57.5ZM91.5652 57.9789C92.0571 58.2886 92.4291 58.7056 92.6848 59.2354L93.2252 58.9746C92.9209 58.3444 92.4729 57.8414 91.8848 57.4711L91.5652 57.9789ZM92.6857 59.2373C92.9441 59.7632 93.075 60.3425 93.075 60.98H93.675C93.675 60.2575 93.5259 59.5868 93.2243 58.9727L92.6857 59.2373ZM93.075 60.98C93.075 61.0934 93.0395 61.1762 92.9679 61.2479L93.3921 61.6721C93.5805 61.4838 93.675 61.2466 93.675 60.98H93.075ZM92.9596 61.2565C92.907 61.3135 92.8283 61.355 92.685 61.355V61.955C92.9617 61.955 93.213 61.8665 93.4004 61.6635L92.9596 61.2565ZM92.685 61.355H87.6V61.955H92.685V61.355ZM87.3019 61.6891C87.3886 62.4472 87.6751 63.066 88.181 63.5145L88.579 63.0655C88.2049 62.734 87.9714 62.2628 87.8981 61.6209L87.3019 61.6891ZM88.181 63.5145C88.6924 63.9677 89.3872 64.175 90.225 64.175V63.575C89.4828 63.575 88.9476 63.3923 88.579 63.0655L88.181 63.5145ZM90.225 64.175C90.6629 64.175 91.0542 64.1334 91.395 64.0455L91.245 63.4645C90.9658 63.5366 90.6271 63.575 90.225 63.575V64.175ZM91.3928 64.046C91.7344 63.9606 92.0649 63.838 92.3842 63.6783L92.1158 63.1417C91.8351 63.282 91.5456 63.3894 91.2472 63.464L91.3928 64.046ZM92.3842 63.6783C92.4178 63.6615 92.461 63.65 92.52 63.65V63.05C92.379 63.05 92.2422 63.0785 92.1158 63.1417L92.3842 63.6783ZM92.52 63.65C92.6035 63.65 92.6715 63.6759 92.7373 63.7361L93.1427 63.2939C92.9685 63.1341 92.7565 63.05 92.52 63.05V63.65ZM92.7373 63.7361C92.7923 63.7865 92.82 63.8449 92.82 63.935H93.42C93.42 63.6851 93.3277 63.4635 93.1427 63.2939L92.7373 63.7361ZM92.82 63.935C92.82 64.01 92.7854 64.1117 92.5801 64.2301L92.8799 64.7499C93.1946 64.5683 93.42 64.3 93.42 63.935H92.82ZM92.5826 64.2287C92.2102 64.4388 91.8466 64.5941 91.4916 64.6968L91.6584 65.2732C92.0634 65.1559 92.4698 64.9812 92.8774 64.7513L92.5826 64.2287ZM91.4916 64.6968C91.1488 64.796 90.6897 64.85 90.105 64.85V65.45C90.7203 65.45 91.2412 65.394 91.6584 65.2732L91.4916 64.6968ZM92.3244 60.5267C92.2918 59.9938 92.1489 59.5277 91.8811 59.1435L91.3889 59.4865C91.5811 59.7623 91.6982 60.1162 91.7256 60.5633L92.3244 60.5267ZM91.8846 59.1486C91.6366 58.7766 91.3199 58.4972 90.9341 58.3219L90.6859 58.8681C90.9601 58.9928 91.1934 59.1934 91.3854 59.4814L91.8846 59.1486ZM90.9409 58.3251C90.5734 58.1469 90.1938 58.055 89.805 58.055V58.655C90.0962 58.655 90.3866 58.7231 90.6791 58.8649L90.9409 58.3251ZM89.805 58.055C89.4162 58.055 89.0366 58.1469 88.6691 58.3251L88.9309 58.8649C89.2234 58.7231 89.5138 58.655 89.805 58.655V58.055ZM88.6759 58.3219C88.2901 58.4972 87.9734 58.7766 87.7254 59.1486L88.2246 59.4814C88.4166 59.1934 88.6499 58.9928 88.9241 58.8681L88.6759 58.3219ZM87.7254 59.1486C87.4698 59.532 87.333 59.9962 87.3006 60.5267L87.8994 60.5633C87.927 60.1138 88.0402 59.758 88.2246 59.4814L87.7254 59.1486ZM87.6 60.845H92.025V60.245H87.6V60.845ZM95.3761 64.88L95.5882 64.6679L95.5882 64.6679L95.3761 64.88ZM95.3761 54.185L95.5884 54.3973L95.5959 54.3891L95.3761 54.185ZM96.3361 54.185L96.1163 54.3891L96.1238 54.3973L96.132 54.4048L96.3361 54.185ZM96.5461 60.8H96.2461V61.4858L96.7497 61.0203L96.5461 60.8ZM100.116 57.5L99.9195 57.2732L99.9125 57.2797L100.116 57.5ZM101.061 57.5L100.823 57.6831L100.832 57.6938L101.061 57.5ZM100.971 58.475L101.171 58.6985L101.177 58.693L101.183 58.6871L100.971 58.475ZM98.8111 60.41L98.6109 60.1865L98.4056 60.3705L98.5716 60.5906L98.8111 60.41ZM101.526 64.01L101.287 64.1906L101.288 64.1929L101.526 64.01ZM101.481 64.895L101.278 64.6746L101.278 64.6746L101.481 64.895ZM100.686 65L100.552 65.2683L100.552 65.2683L100.686 65ZM100.431 64.79L100.189 64.9677L100.194 64.9742L100.431 64.79ZM97.8511 61.28L98.0928 61.1023L97.8958 60.8342L97.6494 61.0579L97.8511 61.28ZM96.5461 62.465L96.3444 62.2429L96.2461 62.3322V62.465H96.5461ZM96.3361 64.88L96.1318 64.66L96.124 64.6679L96.3361 64.88ZM95.8561 64.775C95.7427 64.775 95.6599 64.7395 95.5882 64.6679L95.164 65.0921C95.3523 65.2805 95.5895 65.375 95.8561 65.375V64.775ZM95.5882 64.6679C95.5166 64.5962 95.4811 64.5134 95.4811 64.4H94.8811C94.8811 64.6666 94.9756 64.9038 95.164 65.0921L95.5882 64.6679ZM95.4811 64.4V54.665H94.8811V64.4H95.4811ZM95.4811 54.665C95.4811 54.5516 95.5166 54.4688 95.5882 54.3971L95.164 53.9729C94.9756 54.1612 94.8811 54.3984 94.8811 54.665H95.4811ZM95.5959 54.3891C95.6695 54.3099 95.75 54.275 95.8561 54.275V53.675C95.5821 53.675 95.3427 53.7801 95.1563 53.9809L95.5959 54.3891ZM95.8561 54.275C95.9621 54.275 96.0427 54.3099 96.1163 54.3891L96.5559 53.9809C96.3695 53.7801 96.13 53.675 95.8561 53.675V54.275ZM96.132 54.4048C96.2112 54.4784 96.2461 54.5589 96.2461 54.665H96.8461C96.8461 54.3911 96.741 54.1516 96.5402 53.9652L96.132 54.4048ZM96.2461 54.665V60.8H96.8461V54.665H96.2461ZM96.7497 61.0203L100.32 57.7203L99.9125 57.2797L96.3425 60.5797L96.7497 61.0203ZM100.313 57.7267C100.426 57.6285 100.509 57.605 100.566 57.605V57.005C100.323 57.005 100.106 57.1115 99.9196 57.2733L100.313 57.7267ZM100.566 57.605C100.743 57.605 100.801 57.6534 100.823 57.6829L101.299 57.3171C101.122 57.0866 100.85 57.005 100.566 57.005V57.605ZM100.832 57.6938C100.893 57.7664 100.926 57.8516 100.926 57.965H101.526C101.526 57.7184 101.449 57.4936 101.29 57.3062L100.832 57.6938ZM100.926 57.965C100.926 58.0274 100.896 58.1256 100.759 58.2629L101.183 58.6871C101.386 58.4844 101.526 58.2426 101.526 57.965H100.926ZM100.771 58.2515L98.6109 60.1865L99.0113 60.6335L101.171 58.6985L100.771 58.2515ZM98.5716 60.5906L101.287 64.1906L101.766 63.8294L99.0506 60.2294L98.5716 60.5906ZM101.288 64.1929C101.355 64.2798 101.376 64.3521 101.376 64.415H101.976C101.976 64.1979 101.897 64.0002 101.764 63.8271L101.288 64.1929ZM101.376 64.415C101.376 64.5433 101.338 64.619 101.278 64.6746L101.685 65.1154C101.884 64.931 101.976 64.6867 101.976 64.415H101.376ZM101.278 64.6746C101.21 64.7366 101.121 64.775 100.986 64.775V65.375C101.251 65.375 101.492 65.2934 101.685 65.1154L101.278 64.6746ZM100.986 64.775C100.938 64.775 100.884 64.7633 100.82 64.7317L100.552 65.2683C100.689 65.3367 100.834 65.375 100.986 65.375V64.775ZM100.82 64.7317C100.761 64.7021 100.711 64.6612 100.668 64.6058L100.194 64.9742C100.291 65.0988 100.411 65.1979 100.552 65.2683L100.82 64.7317ZM100.673 64.6123L98.0928 61.1023L97.6094 61.4577L100.189 64.9677L100.673 64.6123ZM97.6494 61.0579L96.3444 62.2429L96.7478 62.6871L98.0528 61.5021L97.6494 61.0579ZM96.2461 62.465V64.4H96.8461V62.465H96.2461ZM96.2461 64.4C96.2461 64.5061 96.2112 64.5866 96.132 64.6602L96.5402 65.0998C96.741 64.9134 96.8461 64.6739 96.8461 64.4H96.2461ZM96.124 64.6679C96.0523 64.7395 95.9695 64.775 95.8561 64.775V65.375C96.1227 65.375 96.3599 65.2805 96.5482 65.0921L96.124 64.6679ZM104.525 64.76L104.361 65.0115L104.364 65.0134L104.525 64.76ZM103.595 63.695L103.323 63.8219L103.325 63.8268L103.595 63.695ZM103.475 57.47L103.271 57.25L103.263 57.2579L103.475 57.47ZM104.45 57.47L104.662 57.2579L104.45 57.47ZM107.63 63.5L107.466 63.2484L107.464 63.2504L107.63 63.5ZM108.755 62.45L108.99 62.6368L109.055 62.5548V62.45H108.755ZM108.95 57.47L108.746 57.25L108.738 57.2579L108.95 57.47ZM109.925 57.47L110.137 57.2579L109.925 57.47ZM109.925 64.88L110.137 65.0923L110.145 65.0841L109.925 64.88ZM108.95 64.88L108.73 65.0841L108.738 65.0923L108.746 65.0998L108.95 64.88ZM108.755 63.77H109.055V62.9913L108.532 63.5687L108.755 63.77ZM107.525 64.775L107.673 65.0358L107.525 64.775ZM105.965 64.85C105.464 64.85 105.041 64.7323 104.686 64.5066L104.364 65.0134C104.828 65.3077 105.366 65.45 105.965 65.45V64.85ZM104.688 64.5085C104.336 64.2796 104.062 63.967 103.864 63.5632L103.325 63.8268C103.568 64.323 103.914 64.7204 104.361 65.0115L104.688 64.5085ZM103.867 63.5681C103.677 63.1612 103.58 62.71 103.58 62.21H102.98C102.98 62.79 103.093 63.3288 103.323 63.8219L103.867 63.5681ZM103.58 62.21V57.95H102.98V62.21H103.58ZM103.58 57.95C103.58 57.8366 103.615 57.7538 103.687 57.6821L103.263 57.2579C103.074 57.4462 102.98 57.6834 102.98 57.95H103.58ZM103.679 57.6898C103.764 57.611 103.856 57.575 103.97 57.575V56.975C103.704 56.975 103.466 57.069 103.271 57.2502L103.679 57.6898ZM103.97 57.575C104.083 57.575 104.166 57.6105 104.238 57.6821L104.662 57.2579C104.474 57.0695 104.237 56.975 103.97 56.975V57.575ZM104.238 57.6821C104.309 57.7538 104.345 57.8366 104.345 57.95H104.945C104.945 57.6834 104.85 57.4462 104.662 57.2579L104.238 57.6821ZM104.345 57.95V62.06H104.945V57.95H104.345ZM104.345 62.06C104.345 62.709 104.491 63.2518 104.835 63.6334C105.184 64.0209 105.69 64.19 106.295 64.19V63.59C105.8 63.59 105.481 63.4541 105.28 63.2316C105.074 63.0032 104.945 62.631 104.945 62.06H104.345ZM106.295 64.19C106.85 64.19 107.354 64.0447 107.796 63.7496L107.464 63.2504C107.126 63.4753 106.74 63.59 106.295 63.59V64.19ZM107.793 63.7515C108.225 63.4711 108.623 63.0976 108.99 62.6368L108.52 62.2632C108.187 62.6824 107.835 63.0089 107.466 63.2485L107.793 63.7515ZM109.055 62.45V57.95H108.455V62.45H109.055ZM109.055 57.95C109.055 57.8366 109.09 57.7538 109.162 57.6821L108.738 57.2579C108.549 57.4462 108.455 57.6834 108.455 57.95H109.055ZM109.154 57.6898C109.239 57.611 109.331 57.575 109.445 57.575V56.975C109.179 56.975 108.941 57.069 108.746 57.2502L109.154 57.6898ZM109.445 57.575C109.558 57.575 109.641 57.6105 109.713 57.6821L110.137 57.2579C109.949 57.0695 109.712 56.975 109.445 56.975V57.575ZM109.713 57.6821C109.784 57.7538 109.82 57.8366 109.82 57.95H110.42C110.42 57.6834 110.325 57.4462 110.137 57.2579L109.713 57.6821ZM109.82 57.95V64.385H110.42V57.95H109.82ZM109.82 64.385C109.82 64.4988 109.784 64.591 109.705 64.6759L110.145 65.0841C110.326 64.889 110.42 64.6512 110.42 64.385H109.82ZM109.713 64.6679C109.641 64.7395 109.558 64.775 109.445 64.775V65.375C109.712 65.375 109.949 65.2805 110.137 65.0921L109.713 64.6679ZM109.445 64.775C109.331 64.775 109.239 64.739 109.154 64.6602L108.746 65.0998C108.941 65.281 109.179 65.375 109.445 65.375V64.775ZM109.17 64.6759C109.091 64.591 109.055 64.4988 109.055 64.385H108.455C108.455 64.6512 108.549 64.889 108.73 65.0841L109.17 64.6759ZM109.055 64.385V63.77H108.455V64.385H109.055ZM108.532 63.5687C108.171 63.9678 107.786 64.2817 107.377 64.5142L107.673 65.0358C108.144 64.7683 108.578 64.4122 108.977 63.9713L108.532 63.5687ZM107.377 64.5142C106.99 64.7341 106.523 64.85 105.965 64.85V65.45C106.607 65.45 107.18 65.3159 107.673 65.0358L107.377 64.5142ZM112.691 64.88L112.903 64.6679L112.903 64.6679L112.691 64.88ZM112.691 57.485L112.903 57.6973L112.91 57.6891L112.691 57.485ZM113.651 57.485L113.431 57.6891L113.438 57.6973L113.446 57.7048L113.651 57.485ZM113.861 58.58H113.561V59.3587L114.083 58.7813L113.861 58.58ZM115.091 57.575L115.239 57.8358L115.091 57.575ZM118.076 57.59L117.912 57.8415L117.915 57.8434L118.076 57.59ZM119.006 58.655L118.734 58.7819L118.736 58.7868L119.006 58.655ZM119.126 64.88L118.921 64.66L118.913 64.6679L119.126 64.88ZM118.166 64.88L117.953 65.0921L117.953 65.0921L118.166 64.88ZM114.971 58.85L114.807 58.5984L114.804 58.6004L114.971 58.85ZM113.861 59.9L113.626 59.7132L113.561 59.7952V59.9H113.861ZM113.651 64.88L113.446 64.66L113.438 64.6679L113.651 64.88ZM113.171 64.775C113.057 64.775 112.974 64.7395 112.903 64.6679L112.478 65.0921C112.667 65.2805 112.904 65.375 113.171 65.375V64.775ZM112.903 64.6679C112.831 64.5962 112.796 64.5134 112.796 64.4H112.196C112.196 64.6666 112.29 64.9038 112.478 65.0921L112.903 64.6679ZM112.796 64.4V57.965H112.196V64.4H112.796ZM112.796 57.965C112.796 57.8516 112.831 57.7688 112.903 57.6971L112.478 57.2729C112.29 57.4612 112.196 57.6984 112.196 57.965H112.796ZM112.91 57.6891C112.984 57.6099 113.064 57.575 113.171 57.575V56.975C112.897 56.975 112.657 57.0801 112.471 57.2809L112.91 57.6891ZM113.171 57.575C113.277 57.575 113.357 57.6099 113.431 57.6891L113.87 57.2809C113.684 57.0801 113.444 56.975 113.171 56.975V57.575ZM113.446 57.7048C113.526 57.7784 113.561 57.8589 113.561 57.965H114.161C114.161 57.6911 114.055 57.4516 113.855 57.2652L113.446 57.7048ZM113.561 57.965V58.58H114.161V57.965H113.561ZM114.083 58.7813C114.444 58.3822 114.83 58.0683 115.239 57.8358L114.942 57.3142C114.471 57.5817 114.037 57.9378 113.638 58.3787L114.083 58.7813ZM115.239 57.8358C115.626 57.6159 116.093 57.5 116.651 57.5V56.9C116.008 56.9 115.435 57.0341 114.942 57.3142L115.239 57.8358ZM116.651 57.5C117.152 57.5 117.568 57.6178 117.912 57.8415L118.239 57.3385C117.783 57.0422 117.249 56.9 116.651 56.9V57.5ZM117.915 57.8434C118.275 58.0719 118.547 58.3825 118.734 58.7819L119.277 58.5281C119.044 58.0275 118.696 57.6281 118.236 57.3366L117.915 57.8434ZM118.736 58.7868C118.934 59.1926 119.036 59.642 119.036 60.14H119.636C119.636 59.558 119.517 59.0174 119.275 58.5232L118.736 58.7868ZM119.036 60.14V64.4H119.636V60.14H119.036ZM119.036 64.4C119.036 64.5061 119.001 64.5866 118.921 64.6602L119.33 65.0998C119.53 64.9134 119.636 64.6739 119.636 64.4H119.036ZM118.913 64.6679C118.842 64.7395 118.759 64.775 118.646 64.775V65.375C118.912 65.375 119.149 65.2805 119.338 65.0921L118.913 64.6679ZM118.646 64.775C118.532 64.775 118.449 64.7395 118.378 64.6679L117.953 65.0921C118.142 65.2805 118.379 65.375 118.646 65.375V64.775ZM118.378 64.6679C118.306 64.5962 118.271 64.5134 118.271 64.4H117.671C117.671 64.6666 117.765 64.9038 117.953 65.0921L118.378 64.6679ZM118.271 64.4V60.29H117.671V64.4H118.271ZM118.271 60.29C118.271 59.641 118.125 59.0982 117.781 58.7166C117.431 58.3291 116.925 58.16 116.321 58.16V58.76C116.816 58.76 117.135 58.8959 117.335 59.1184C117.541 59.3468 117.671 59.719 117.671 60.29H118.271ZM116.321 58.16C115.765 58.16 115.258 58.3053 114.807 58.5985L115.134 59.1015C115.483 58.8747 115.876 58.76 116.321 58.76V58.16ZM114.804 58.6004C114.384 58.8807 113.991 59.2536 113.626 59.7132L114.095 60.0868C114.43 59.6664 114.777 59.3393 115.137 59.0996L114.804 58.6004ZM113.561 59.9V64.4H114.161V59.9H113.561ZM113.561 64.4C113.561 64.5061 113.526 64.5866 113.446 64.6602L113.855 65.0998C114.055 64.9134 114.161 64.6739 114.161 64.4H113.561ZM113.438 64.6679C113.367 64.7395 113.284 64.775 113.171 64.775V65.375C113.437 65.375 113.674 65.2805 113.863 65.0921L113.438 64.6679ZM122.986 64.655L123.135 64.3943L123.135 64.3943L122.986 64.655ZM121.636 63.26L121.369 63.3959L121.371 63.4012L121.636 63.26ZM121.636 59.105L121.371 58.9656L121.37 58.9673L121.636 59.105ZM122.986 57.695L123.135 57.9557L123.135 57.9557L122.986 57.695ZM127.021 57.695L126.873 57.9557L126.873 57.9557L127.021 57.695ZM128.371 59.105L128.106 59.2444L128.106 59.2462L128.371 59.105ZM128.371 63.26L128.636 63.4012L128.637 63.3994L128.371 63.26ZM127.021 64.655L126.873 64.3943L126.873 64.3943L127.021 64.655ZM126.181 63.62L126.047 63.3517L126.044 63.3531L126.181 63.62ZM127.111 62.72L126.855 62.5638L126.852 62.5684L127.111 62.72ZM127.111 59.615L126.852 59.7666L126.855 59.7712L127.111 59.615ZM126.181 58.73L126.044 58.997L126.053 59.0011L126.181 58.73ZM123.811 58.73L123.942 58.9998L123.945 58.9983L123.811 58.73ZM122.896 59.615L122.637 59.4634L122.637 59.4634L122.896 59.615ZM122.896 62.72L122.637 62.8716L122.637 62.8716L122.896 62.72ZM123.811 63.62L123.674 63.8869L123.677 63.8883L123.811 63.62ZM125.011 64.85C124.285 64.85 123.663 64.6948 123.135 64.3943L122.838 64.9157C123.47 65.2752 124.197 65.45 125.011 65.45V64.85ZM123.135 64.3943C122.605 64.0929 122.195 63.6698 121.901 63.1188L121.371 63.4012C121.718 64.0502 122.208 64.5571 122.838 64.9157L123.135 64.3943ZM121.904 63.1241C121.618 62.5617 121.471 61.9144 121.471 61.175H120.871C120.871 61.9956 121.035 62.7382 121.369 63.3959L121.904 63.1241ZM121.471 61.175C121.471 60.4355 121.618 59.794 121.903 59.2427L121.37 58.9673C121.034 59.616 120.871 60.3545 120.871 61.175H121.471ZM121.902 59.2444C122.196 58.6835 122.606 58.2564 123.135 57.9557L122.838 57.4343C122.206 57.7936 121.716 58.3065 121.371 58.9656L121.902 59.2444ZM123.135 57.9557C123.663 57.6552 124.285 57.5 125.011 57.5V56.9C124.197 56.9 123.47 57.0748 122.838 57.4343L123.135 57.9557ZM125.011 57.5C125.726 57.5 126.344 57.6549 126.873 57.9557L127.17 57.4343C126.538 57.0751 125.816 56.9 125.011 56.9V57.5ZM126.873 57.9557C127.401 58.2564 127.811 58.6835 128.106 59.2444L128.637 58.9656C128.291 58.3065 127.801 57.7936 127.17 57.4343L126.873 57.9557ZM128.106 59.2462C128.4 59.7967 128.551 60.4369 128.551 61.175H129.151C129.151 60.3531 128.982 59.6133 128.636 58.9638L128.106 59.2462ZM128.551 61.175C128.551 61.9129 128.4 62.559 128.106 63.1206L128.637 63.3994C128.982 62.741 129.151 61.9971 129.151 61.175H128.551ZM128.106 63.1188C127.813 63.6698 127.403 64.0929 126.873 64.3943L127.17 64.9157C127.8 64.5571 128.29 64.0502 128.636 63.4012L128.106 63.1188ZM126.873 64.3943C126.344 64.6951 125.726 64.85 125.011 64.85V65.45C125.816 65.45 126.538 65.2749 127.17 64.9157L126.873 64.3943ZM125.011 64.205C125.47 64.205 125.906 64.0983 126.318 63.8869L126.044 63.3531C125.716 63.5217 125.373 63.605 125.011 63.605V64.205ZM126.315 63.8883C126.753 63.6693 127.104 63.3256 127.37 62.8716L126.852 62.5684C126.638 62.9344 126.369 63.1907 126.047 63.3517L126.315 63.8883ZM127.367 62.8762C127.654 62.4066 127.786 61.8283 127.786 61.16H127.186C127.186 61.7517 127.069 62.2134 126.855 62.5638L127.367 62.8762ZM127.786 61.16C127.786 60.5007 127.653 59.9277 127.367 59.4588L126.855 59.7712C127.069 60.1223 127.186 60.5793 127.186 61.16H127.786ZM127.37 59.4634C127.104 59.0084 126.751 58.668 126.31 58.4589L126.053 59.0011C126.371 59.152 126.639 59.4016 126.852 59.7666L127.37 59.4634ZM126.318 58.4631C125.906 58.2517 125.47 58.145 125.011 58.145V58.745C125.373 58.745 125.716 58.8283 126.044 58.9969L126.318 58.4631ZM125.011 58.145C124.544 58.145 124.098 58.2511 123.677 58.4617L123.945 58.9983C124.284 58.8289 124.638 58.745 125.011 58.745V58.145ZM123.68 58.4602C123.249 58.67 122.902 59.0104 122.637 59.4634L123.155 59.7666C123.37 59.3996 123.634 59.15 123.942 58.9998L123.68 58.4602ZM122.637 59.4634C122.363 59.9314 122.236 60.5026 122.236 61.16H122.836C122.836 60.5774 122.949 60.1186 123.155 59.7666L122.637 59.4634ZM122.236 61.16C122.236 61.8264 122.363 62.4029 122.637 62.8716L123.155 62.5684C122.949 62.2171 122.836 61.7536 122.836 61.16H122.236ZM122.637 62.8716C122.902 63.3236 123.246 63.6672 123.674 63.8869L123.948 63.3531C123.636 63.1928 123.37 62.9364 123.155 62.5684L122.637 62.8716ZM123.677 63.8883C124.098 64.0989 124.544 64.205 125.011 64.205V63.605C124.638 63.605 124.284 63.5211 123.945 63.3517L123.677 63.8883ZM130.957 64.88L131.169 64.6679L131.169 64.6679L130.957 64.88ZM130.957 54.185L131.169 54.3973L131.177 54.3891L130.957 54.185ZM131.932 54.17L132.144 53.9579L132.144 53.9579L131.932 54.17ZM131.917 64.88L131.713 64.66L131.705 64.6679L131.917 64.88ZM131.437 64.775C131.324 64.775 131.241 64.7395 131.169 64.6679L130.745 65.0921C130.933 65.2805 131.171 65.375 131.437 65.375V64.775ZM131.169 64.6679C131.098 64.5962 131.062 64.5134 131.062 64.4H130.462C130.462 64.6666 130.557 64.9038 130.745 65.0921L131.169 64.6679ZM131.062 64.4V54.665H130.462V64.4H131.062ZM131.062 54.665C131.062 54.5516 131.098 54.4688 131.169 54.3971L130.745 53.9729C130.557 54.1612 130.462 54.3984 130.462 54.665H131.062ZM131.177 54.3891C131.251 54.3099 131.331 54.275 131.437 54.275V53.675C131.163 53.675 130.924 53.7801 130.737 53.9809L131.177 54.3891ZM131.437 54.275C131.565 54.275 131.652 54.3136 131.72 54.3821L132.144 53.9579C131.953 53.7664 131.709 53.675 131.437 53.675V54.275ZM131.72 54.3821C131.789 54.4506 131.827 54.5369 131.827 54.665H132.427C132.427 54.3931 132.336 54.1494 132.144 53.9579L131.72 54.3821ZM131.827 54.665V64.4H132.427V54.665H131.827ZM131.827 64.4C131.827 64.5061 131.792 64.5866 131.713 64.6602L132.121 65.0998C132.322 64.9134 132.427 64.6739 132.427 64.4H131.827ZM131.705 64.6679C131.633 64.7395 131.551 64.775 131.437 64.775V65.375C131.704 65.375 131.941 65.2805 132.129 65.0921L131.705 64.6679ZM135.218 64.88L135.086 65.1498L135.089 65.1511L135.218 64.88ZM134.333 64.1L134.078 64.2597L134.081 64.263L134.333 64.1ZM134.873 61.13L134.693 60.8895L134.691 60.891L134.873 61.13ZM139.268 60.47V60.77H139.568V60.47H139.268ZM138.773 58.925L138.571 59.1473L138.574 59.1503L138.773 58.925ZM136.238 58.58L136.179 58.2858L136.177 58.2862L136.238 58.58ZM135.263 58.85L135.335 59.141L135.346 59.1382L135.357 59.1346L135.263 58.85ZM134.678 58.715L134.89 58.5029L134.89 58.5029L134.678 58.715ZM134.903 57.74L135.019 58.0163L135.019 58.0162L134.903 57.74ZM139.238 57.62L139.084 57.8777L139.086 57.8791L139.238 57.62ZM140.288 58.715L140.018 58.8468L140.022 58.854L140.288 58.715ZM140.423 64.88L140.218 64.66L140.21 64.6679L140.423 64.88ZM139.463 64.88L139.675 64.6679L139.675 64.6679L139.463 64.88ZM139.268 64.01H139.568V63.2719L139.053 63.8007L139.268 64.01ZM138.233 63.635L138.369 63.9021L138.374 63.8993L138.233 63.635ZM139.268 62.825L139.493 63.0226L139.568 62.9377V62.825H139.268ZM139.268 61.565H139.568V61.265H139.268V61.565ZM135.728 63.62L135.525 63.8412L135.529 63.8452L135.728 63.62ZM136.448 64.85C136.05 64.85 135.684 64.769 135.346 64.6089L135.089 65.1511C135.511 65.351 135.965 65.45 136.448 65.45V64.85ZM135.349 64.6102C135.027 64.4538 134.774 64.2303 134.584 63.937L134.081 64.263C134.331 64.6497 134.668 64.9462 135.086 65.1498L135.349 64.6102ZM134.586 63.9403C134.399 63.6424 134.303 63.2987 134.303 62.9H133.703C133.703 63.4013 133.826 63.8576 134.079 64.2597L134.586 63.9403ZM134.303 62.9C134.303 62.252 134.55 61.7512 135.054 61.369L134.691 60.891C134.035 61.3888 133.703 62.068 133.703 62.9H134.303ZM135.052 61.3705C135.569 60.9849 136.355 60.77 137.453 60.77V60.17C136.29 60.17 135.356 60.3951 134.693 60.8895L135.052 61.3705ZM137.453 60.77H139.268V60.17H137.453V60.77ZM139.568 60.47V60.35H138.968V60.47H139.568ZM139.568 60.35C139.568 59.6474 139.392 59.0702 138.971 58.6997L138.574 59.1503C138.813 59.3598 138.968 59.7326 138.968 60.35H139.568ZM138.974 58.7027C138.574 58.3402 137.98 58.19 137.258 58.19V58.79C137.915 58.79 138.331 58.9298 138.571 59.1473L138.974 58.7027ZM137.258 58.19C136.862 58.19 136.502 58.2212 136.179 58.2858L136.296 58.8742C136.573 58.8188 136.893 58.79 137.258 58.79V58.19ZM136.177 58.2862C135.873 58.3492 135.536 58.4426 135.168 58.5654L135.357 59.1346C135.709 59.0174 136.022 58.9308 136.298 58.8738L136.177 58.2862ZM135.19 58.559C135.12 58.5763 135.082 58.58 135.068 58.58V59.18C135.153 59.18 135.245 59.1637 135.335 59.141L135.19 58.559ZM135.068 58.58C135 58.58 134.946 58.5589 134.89 58.5029L134.465 58.9271C134.629 59.0911 134.835 59.18 135.068 59.18V58.58ZM134.89 58.5029C134.838 58.4509 134.813 58.393 134.813 58.31H134.213C134.213 58.547 134.297 58.7591 134.465 58.9271L134.89 58.5029ZM134.813 58.31C134.813 58.2248 134.832 58.1713 134.858 58.1344C134.883 58.0965 134.93 58.054 135.019 58.0163L134.786 57.4637C134.615 57.536 134.467 57.6435 134.362 57.7956C134.258 57.9487 134.213 58.1252 134.213 58.31H134.813ZM135.019 58.0162C135.834 57.6711 136.66 57.5 137.498 57.5V56.9C136.575 56.9 135.671 57.0889 134.786 57.4638L135.019 58.0162ZM137.498 57.5C138.147 57.5 138.671 57.6318 139.084 57.8777L139.391 57.3623C138.864 57.0482 138.228 56.9 137.498 56.9V57.5ZM139.086 57.8791C139.521 58.1327 139.827 58.4557 140.018 58.8468L140.557 58.5832C140.308 58.0743 139.914 57.6673 139.389 57.3609L139.086 57.8791ZM140.022 58.854C140.228 59.249 140.333 59.681 140.333 60.155H140.933C140.933 59.589 140.807 59.061 140.553 58.576L140.022 58.854ZM140.333 60.155V64.4H140.933V60.155H140.333ZM140.333 64.4C140.333 64.5061 140.298 64.5866 140.218 64.6602L140.627 65.0998C140.827 64.9134 140.933 64.6739 140.933 64.4H140.333ZM140.21 64.6679C140.139 64.7395 140.056 64.775 139.943 64.775V65.375C140.209 65.375 140.446 65.2805 140.635 65.0921L140.21 64.6679ZM139.943 64.775C139.829 64.775 139.746 64.7395 139.675 64.6679L139.25 65.0921C139.439 65.2805 139.676 65.375 139.943 65.375V64.775ZM139.675 64.6679C139.603 64.5962 139.568 64.5134 139.568 64.4H138.968C138.968 64.6666 139.062 64.9038 139.25 65.0921L139.675 64.6679ZM139.568 64.4V64.01H138.968V64.4H139.568ZM139.053 63.8007C138.374 64.4981 137.513 64.85 136.448 64.85V65.45C137.662 65.45 138.681 65.0419 139.482 64.2193L139.053 63.8007ZM136.958 64.25C137.447 64.25 137.919 64.1326 138.369 63.902L138.096 63.368C137.726 63.5574 137.348 63.65 136.958 63.65V64.25ZM138.374 63.8993C138.813 63.6639 139.187 63.3721 139.493 63.0226L139.042 62.6274C138.788 62.9179 138.472 63.1661 138.091 63.3707L138.374 63.8993ZM139.568 62.825V61.565H138.968V62.825H139.568ZM139.268 61.265H137.633V61.865H139.268V61.265ZM137.633 61.265C136.861 61.265 136.237 61.3643 135.795 61.5954C135.569 61.7133 135.384 61.8695 135.256 62.0704C135.127 62.2725 135.068 62.5027 135.068 62.75H135.668C135.668 62.6023 135.702 62.4869 135.762 62.3928C135.823 62.2974 135.921 62.2067 136.073 62.1271C136.386 61.9632 136.894 61.865 137.633 61.865V61.265ZM135.068 62.75C135.068 63.1842 135.216 63.558 135.525 63.8411L135.93 63.3989C135.759 63.242 135.668 63.0358 135.668 62.75H135.068ZM135.529 63.8452C135.862 64.1376 136.362 64.25 136.958 64.25V63.65C136.413 63.65 136.093 63.5424 135.926 63.3948L135.529 63.8452Z" fill="black"/>
<mask id="path-3-outside-1" maskUnits="userSpaceOnUse" x="0" y="0" width="169" height="56" fill="black">
<rect fill="white" width="169" height="56"/>
<path fill-rule="evenodd" clip-rule="evenodd" d="M48.1994 12.7705L43.5992 6.44H34.0302V37.88C34.0302 42.08 34.9902 45.02 36.9102 46.7C38.8702 48.34 42.2502 49.16 47.0502 49.16H62.1702V41.72H47.6502C45.6502 41.72 44.2702 41.4 43.5102 40.76C42.7502 40.12 42.3702 38.96 42.3702 37.28V31.34H55.6302L56.2302 23.9H42.3702V13.88H62.1702V6.44H49.3157L48.1994 12.7705ZM25.1 38.96V46.76L2 35.42V29.06L25.1 17.78V25.58L9.98 32.3L25.1 38.96ZM89.3154 49.16H83.3783C78.5783 49.16 75.1983 48.34 73.2383 46.7C71.3183 45.02 70.3583 42.08 70.3583 37.88V6.44H98.4983V13.88H78.6983V23.9H92.5583L91.9583 31.34H78.6983V37.28C78.6983 38.96 79.0783 40.12 79.8383 40.76C80.5895 41.3926 81.9463 41.7125 83.9088 41.7199L89.3154 49.16ZM93.4211 49.16L84.1962 41.72H98.4983V49.16H93.4211ZM140.072 2L122.972 53.6H115.652L132.752 2H140.072ZM143.211 46.76V38.96L158.331 32.3L143.211 25.58V17.78L166.311 29.06V35.42L143.211 46.76Z"/>
</mask>
<path fill-rule="evenodd" clip-rule="evenodd" d="M48.1994 12.7705L43.5992 6.44H34.0302V37.88C34.0302 42.08 34.9902 45.02 36.9102 46.7C38.8702 48.34 42.2502 49.16 47.0502 49.16H62.1702V41.72H47.6502C45.6502 41.72 44.2702 41.4 43.5102 40.76C42.7502 40.12 42.3702 38.96 42.3702 37.28V31.34H55.6302L56.2302 23.9H42.3702V13.88H62.1702V6.44H49.3157L48.1994 12.7705ZM25.1 38.96V46.76L2 35.42V29.06L25.1 17.78V25.58L9.98 32.3L25.1 38.96ZM89.3154 49.16H83.3783C78.5783 49.16 75.1983 48.34 73.2383 46.7C71.3183 45.02 70.3583 42.08 70.3583 37.88V6.44H98.4983V13.88H78.6983V23.9H92.5583L91.9583 31.34H78.6983V37.28C78.6983 38.96 79.0783 40.12 79.8383 40.76C80.5895 41.3926 81.9463 41.7125 83.9088 41.7199L89.3154 49.16ZM93.4211 49.16L84.1962 41.72H98.4983V49.16H93.4211ZM140.072 2L122.972 53.6H115.652L132.752 2H140.072ZM143.211 46.76V38.96L158.331 32.3L143.211 25.58V17.78L166.311 29.06V35.42L143.211 46.76Z" fill="white"/>
<path d="M43.5992 6.44L45.2171 5.26429L44.6181 4.44H43.5992V6.44ZM48.1994 12.7705L46.5815 13.9462L49.351 17.7574L50.169 13.1178L48.1994 12.7705ZM34.0302 6.44V4.44H32.0302V6.44H34.0302ZM36.9102 46.7L35.5931 48.2052L35.6098 48.2197L35.6267 48.2339L36.9102 46.7ZM62.1702 49.16V51.16H64.1702V49.16H62.1702ZM62.1702 41.72H64.1702V39.72H62.1702V41.72ZM43.5102 40.76L42.2219 42.2898H42.2219L43.5102 40.76ZM42.3702 31.34V29.34H40.3702V31.34H42.3702ZM55.6302 31.34V33.34H57.4754L57.6237 31.5008L55.6302 31.34ZM56.2302 23.9L58.2237 24.0608L58.3979 21.9H56.2302V23.9ZM42.3702 23.9H40.3702V25.9H42.3702V23.9ZM42.3702 13.88V11.88H40.3702V13.88H42.3702ZM62.1702 13.88V15.88H64.1702V13.88H62.1702ZM62.1702 6.44H64.1702V4.44H62.1702V6.44ZM49.3157 6.44V4.44H47.6375L47.346 6.0927L49.3157 6.44ZM25.1 46.76L24.2187 48.5553L27.1 49.9698V46.76H25.1ZM25.1 38.96H27.1V37.6555L25.9062 37.1297L25.1 38.96ZM2 35.42H0V36.6662L1.11865 37.2153L2 35.42ZM2 29.06L1.12242 27.2628L0 27.8109V29.06H2ZM25.1 17.78H27.1V14.5777L24.2224 15.9828L25.1 17.78ZM25.1 25.58L25.9123 27.4076L27.1 26.8797V25.58H25.1ZM9.98 32.3L9.16772 30.4724L5.03712 32.3082L9.17379 34.1303L9.98 32.3ZM89.3154 49.16V51.16H93.2411L90.9333 47.9843L89.3154 49.16ZM73.2383 46.7L71.9213 48.2052L71.9379 48.2197L71.9548 48.2339L73.2383 46.7ZM70.3583 6.44V4.44H68.3583V6.44H70.3583ZM98.4983 6.44H100.498V4.44H98.4983V6.44ZM98.4983 13.88V15.88H100.498V13.88H98.4983ZM78.6983 13.88V11.88H76.6983V13.88H78.6983ZM78.6983 23.9H76.6983V25.9H78.6983V23.9ZM92.5583 23.9L94.5518 24.0608L94.7261 21.9H92.5583V23.9ZM91.9583 31.34V33.34H93.8035L93.9518 31.5008L91.9583 31.34ZM78.6983 31.34V29.34H76.6983V31.34H78.6983ZM79.8383 40.76L78.55 42.2898L78.55 42.2898L79.8383 40.76ZM83.9088 41.7199L85.5268 40.5442L84.9305 39.7237L83.9163 39.7199L83.9088 41.7199ZM93.4211 49.16L92.1656 50.7168L92.7151 51.16H93.4211V49.16ZM84.1962 41.72V39.72H78.5306L82.9407 43.2768L84.1962 41.72ZM98.4983 41.72H100.498V39.72H98.4983V41.72ZM98.4983 49.16V51.16H100.498V49.16H98.4983ZM122.972 53.6V55.6H124.416L124.87 54.2291L122.972 53.6ZM140.072 2L141.97 2.62914L142.841 0H140.072V2ZM115.652 53.6L113.753 52.9709L112.882 55.6H115.652V53.6ZM132.752 2V0H131.308L130.853 1.37086L132.752 2ZM143.211 38.96L142.405 37.1297L141.211 37.6555V38.96H143.211ZM143.211 46.76H141.211V49.9698L144.092 48.5553L143.211 46.76ZM158.331 32.3L159.137 34.1303L163.274 32.3082L159.143 30.4724L158.331 32.3ZM143.211 25.58H141.211V26.8797L142.399 27.4076L143.211 25.58ZM143.211 17.78L144.089 15.9828L141.211 14.5777V17.78H143.211ZM166.311 29.06H168.311V27.8109L167.189 27.2628L166.311 29.06ZM166.311 35.42L167.192 37.2153L168.311 36.6662V35.42H166.311ZM41.9813 7.61571L46.5815 13.9462L49.8174 11.5948L45.2171 5.26429L41.9813 7.61571ZM34.0302 8.44H43.5992V4.44H34.0302V8.44ZM36.0302 37.88V6.44H32.0302V37.88H36.0302ZM38.2272 45.1948C36.9544 44.0812 36.0302 41.8651 36.0302 37.88H32.0302C32.0302 42.2949 33.0259 45.9588 35.5931 48.2052L38.2272 45.1948ZM47.0502 47.16C42.3594 47.16 39.5905 46.335 38.1936 45.1661L35.6267 48.2339C38.1498 50.345 42.1409 51.16 47.0502 51.16V47.16ZM62.1702 47.16H47.0502V51.16H62.1702V47.16ZM60.1702 41.72V49.16H64.1702V41.72H60.1702ZM47.6502 43.72H62.1702V39.72H47.6502V43.72ZM42.2219 42.2898C43.5626 43.4189 45.5823 43.72 47.6502 43.72V39.72C45.718 39.72 44.9777 39.3811 44.7984 39.2302L42.2219 42.2898ZM40.3702 37.28C40.3702 39.1565 40.7779 41.0739 42.2219 42.2898L44.7984 39.2302C44.7224 39.1661 44.3702 38.7635 44.3702 37.28H40.3702ZM40.3702 31.34V37.28H44.3702V31.34H40.3702ZM55.6302 29.34H42.3702V33.34H55.6302V29.34ZM54.2366 23.7392L53.6366 31.1792L57.6237 31.5008L58.2237 24.0608L54.2366 23.7392ZM42.3702 25.9H56.2302V21.9H42.3702V25.9ZM40.3702 13.88V23.9H44.3702V13.88H40.3702ZM62.1702 11.88H42.3702V15.88H62.1702V11.88ZM60.1702 6.44V13.88H64.1702V6.44H60.1702ZM49.3157 8.44H62.1702V4.44H49.3157V8.44ZM50.169 13.1178L51.2853 6.7873L47.346 6.0927L46.2298 12.4232L50.169 13.1178ZM27.1 46.76V38.96H23.1V46.76H27.1ZM1.11865 37.2153L24.2187 48.5553L25.9813 44.9647L2.88135 33.6247L1.11865 37.2153ZM0 29.06V35.42H4V29.06H0ZM24.2224 15.9828L1.12242 27.2628L2.87758 30.8572L25.9776 19.5772L24.2224 15.9828ZM27.1 25.58V17.78H23.1V25.58H27.1ZM10.7923 34.1276L25.9123 27.4076L24.2877 23.7524L9.16772 30.4724L10.7923 34.1276ZM25.9062 37.1297L10.7862 30.4697L9.17379 34.1303L24.2938 40.7903L25.9062 37.1297ZM83.3783 51.16H89.3154V47.16H83.3783V51.16ZM71.9548 48.2339C74.4779 50.345 78.469 51.16 83.3783 51.16V47.16C78.6875 47.16 75.9186 46.335 74.5217 45.1661L71.9548 48.2339ZM68.3583 37.88C68.3583 42.2949 69.3541 45.9588 71.9213 48.2052L74.5553 45.1948C73.2825 44.0812 72.3583 41.8651 72.3583 37.88H68.3583ZM68.3583 6.44V37.88H72.3583V6.44H68.3583ZM98.4983 4.44H70.3583V8.44H98.4983V4.44ZM100.498 13.88V6.44H96.4983V13.88H100.498ZM78.6983 15.88H98.4983V11.88H78.6983V15.88ZM80.6983 23.9V13.88H76.6983V23.9H80.6983ZM92.5583 21.9H78.6983V25.9H92.5583V21.9ZM93.9518 31.5008L94.5518 24.0608L90.5648 23.7392L89.9648 31.1792L93.9518 31.5008ZM78.6983 33.34H91.9583V29.34H78.6983V33.34ZM80.6983 37.28V31.34H76.6983V37.28H80.6983ZM81.1266 39.2302C81.0505 39.1661 80.6983 38.7635 80.6983 37.28H76.6983C76.6983 39.1565 77.1061 41.0739 78.55 42.2898L81.1266 39.2302ZM83.9163 39.7199C82.0259 39.7128 81.302 39.3779 81.1265 39.2302L78.55 42.2898C79.8769 43.4072 81.8667 43.7122 83.9014 43.7199L83.9163 39.7199ZM82.2909 42.8956L87.6975 50.3357L90.9333 47.9843L85.5268 40.5442L82.2909 42.8956ZM94.6767 47.6032L85.4518 40.1632L82.9407 43.2768L92.1656 50.7168L94.6767 47.6032ZM98.4983 39.72H84.1962V43.72H98.4983V39.72ZM100.498 49.16V41.72H96.4983V49.16H100.498ZM93.4211 51.16H98.4983V47.16H93.4211V51.16ZM124.87 54.2291L141.97 2.62914L138.173 1.37086L121.073 52.9709L124.87 54.2291ZM115.652 55.6H122.972V51.6H115.652V55.6ZM130.853 1.37086L113.753 52.9709L117.55 54.2291L134.65 2.62914L130.853 1.37086ZM140.072 0H132.752V4H140.072V0ZM141.211 38.96V46.76H145.211V38.96H141.211ZM157.525 30.4697L142.405 37.1297L144.017 40.7903L159.137 34.1303L157.525 30.4697ZM142.399 27.4076L157.519 34.1276L159.143 30.4724L144.023 23.7524L142.399 27.4076ZM141.211 17.78V25.58H145.211V17.78H141.211ZM167.189 27.2628L144.089 15.9828L142.333 19.5772L165.433 30.8572L167.189 27.2628ZM168.311 35.42V29.06H164.311V35.42H168.311ZM144.092 48.5553L167.192 37.2153L165.43 33.6247L142.33 44.9647L144.092 48.5553Z" fill="black" mask="url(#path-3-outside-1)"/>
</svg>
